<?xml version="1.0" encoding="utf-8"?>
<!-- Generator: Adobe Illustrator 26.2.1, SVG Export Plug-In . SVG Version: 6.00 Build 0)  -->
<svg version="1.1" id="topographic" xmlns="http://www.w3.org/2000/svg" xmlns:xlink="http://www.w3.org/1999/xlink" x="0px"
	 y="0px" width="1701.8px" height="1663.2px" viewBox="0 0 1701.8 1663.2" style="enable-background:new 0 0 1701.8 1663.2;"
	 xml:space="preserve">
<style type="text/css">
	.st0{fill:#DEE3E7;}
</style>
<path class="st0" d="M828.7,33.6c1.6,1.4,3.1,2.9,4.5,4.4c1.3,1.5,2.7,2.9,4.1,4.1c26.2,23.4,54.1,36.3,78.4,36.3l0,0
	c24.1,0,44.4-11.9,60.5-35.4c8.7-12.7,15.6-27.8,19.9-43h-0.8c-4.2,15-11.1,30-19.6,42.6c-16,23.2-36.1,35-59.9,35l0,0
	c-24.1,0-51.8-12.9-77.9-36c-1.4-1.2-2.7-2.7-4.1-4.1c-1.5-1.5-3-3.1-4.5-4.5c-11.7-10.3-24.4-19.7-36.6-28.8
	c-1.8-1.4-3.6-2.7-5.4-4.1H786c2.1,1.6,4.2,3.1,6.3,4.7C804.5,13.9,817,23.3,828.7,33.6z"/>
<g>
	<path class="st0" d="M1,182l-2-0.3v-2.9l0.1-0.2c0.1-0.3,0.2-0.6,0.3-0.9c0.2-0.6,0.4-1.3,0.7-1.9C10.1,146,30.4,127,50,108.7
		l0.4-0.4c16.9-15.7,34.3-31.9,45.6-55c6.5-13.7,11.4-33.2,13.6-53.4l0.1-0.9h2.8l-0.1,1.1c-2.3,20.8-7.4,40.6-14,54.3
		c-11.3,23.6-29,40-46,55.9l0,0c-19.6,18.2-39.8,37-49.8,66.6c-0.2,0.5-0.3,1.1-0.5,1.6C1.7,179.7,1.3,180.8,1,182z"/>
</g>
<path class="st0" d="M910,41.9L910,41.9c8.3,0,16.4-2.9,23.8-8.6c7-5.2,10.4-10.6,14-16.2c1.5-2.4,3.1-4.8,4.9-7.3
	c1.4-3.2,2.6-6.6,3.6-10h-0.8c-1,3.2-2.1,6.4-3.4,9.5c-1.9,2.5-3.4,4.9-4.9,7.3c-3.5,5.5-7,10.7-13.7,15.9
	c-7.4,5.6-15.2,8.4-23.4,8.4l0,0c-21.9,0-42.9-19.5-61.4-36.6c-1.7-1.6-3.3-3.1-5-4.6h-1.2c1.8,1.7,3.7,3.4,5.5,5.1
	C866.6,22.4,887.8,41.9,910,41.9z"/>
<g>
	<path class="st0" d="M0.9,305.4l-2-0.2v-2.1c0-0.2,0-0.6,0.2-0.9c5.7-14.6,9.5-34.7,13.3-54l0.1-0.7c3.9-20.5,7.6-39.8,13.4-53.7
		c9.6-23.4,29.4-42.9,50.4-63.6l0.5-0.5c13.4-13.1,26.4-26,37.4-40c14-17.7,23.3-33.1,31.3-51.6c4.6-10.5,8.5-22.7,12.5-35.3
		c0.2-0.5,0.3-1,0.5-1.5s0.3-1,0.5-1.5l0.2-0.7h2.9l-0.4,1.3c-0.3,1-0.7,2.2-1.1,3.3L160,5.4c-3.7,11.5-7.6,23.3-12.1,33.7
		c-8,18.6-17.4,34.2-31.5,52.2c-11.7,14.9-25.5,28.4-37.7,40.3c-20.9,20.6-40.6,40-50.2,63.2c-5.4,12.8-8.9,30.8-12.6,49.8l-0.6,3.3
		c-3.5,18.7-7.5,39.8-13.5,55.6c-0.1,0.3-0.2,0.5-0.4,0.8C1.2,304.6,1,305,0.9,305.4z"/>
</g>
<g>
	<path class="st0" d="M348.2,891.1c-6.6,0-14.2-0.5-22.7-1.4c-15.2-1.5-36.5-4.1-51.9-7.8c-26.1-6.3-34-24.9-43.9-48.5l-0.2-0.4
		c-9.7-23.4-22.1-50.6-40.8-75.2c-7.3-9.6-15-18.1-21.6-25.2c-17.6-19.2-32.8-35.8-36.8-61.8c-5.2-34.2,3.9-56,12-75.1
		c5.3-12.8,10.9-26,10-41.1c-12.9-27.1-46.4-40.5-73.3-51.4l-1.8-0.7c-7.1-2.8-14.4-5.6-22.4-7.3c-19.4-4.1-37.9-6.5-55-7.1h-1v-2.8
		h1c18,0.7,36.7,3.2,55.6,7.2c8.5,1.8,16.2,4.9,23.6,7.8l0.3,0.1c26.2,10.4,62,24.6,75.5,53.2l0.2,0.4v0.2
		c0.9,15.6-4.5,28.7-10.3,42.5c-7.9,19-16.8,40.4-11.7,73.7c3.8,25.3,18.7,41.6,36,60.4l0.3,0.3c7.1,7.8,14.5,15.9,21.5,25.1
		c18.4,24.2,31,51.9,41,75.8l0.1,0.2c9.7,23,17.3,41.1,42.1,47c11.9,2.8,28.8,5.3,51.7,7.8c21.3,2.4,38.1,1.6,51.3-2.3
		c16.9-5,27.7-18.9,41.5-36.4l0.3-0.4c4-5.4,8.4-10.9,13.4-16.8c2.9-3.6,6.7-7.4,10.7-11.5l1.6-1.6c9-9.1,19.3-19.5,22-27.3
		c0.9-2.8,0.7-5.4,0.4-8.4c-0.2-2.5-0.4-5.2-0.1-8.2c-9.6-12.4-21.1-22.4-31.2-31.2c-18.9-16.5-36.7-32-43.6-58.2
		c-3.6-13.8-2.2-28.4,4-44.8c6.6-17.3,22.1-36.3,43.5-53.4c8.7-6.9,18.4-14.5,30.5-23.9c46.5-36.2,104.3-81.2,135.1-119.3
		c0.8-4.4,0.6-9.4-0.8-14.8c-8.4-34-54.2-74.9-84.5-83.2c-0.4-0.1-0.9-0.2-1.6-0.4c-1.3-0.3-3-0.8-4.7-1.1
		c-20.6-4.5-41.5-1.4-61.8,1.7l-0.4,0.1c-17.8,2.6-34.6,5.1-51,2.9c-36.2-4.8-62.2-28.9-71.2-66.2c-12-49.1,21-79.6,52.9-109
		l0.2-0.1c23-21.3,46.9-43.4,53.1-72.2c5.9-27-1.8-56.4-6.8-75.8l-0.2-0.6c-2.4-8.8-4.8-16.7-7.4-24L420.5-1h2.9l0.2,0.7
		c3.1,9.1,5.4,16.7,7.3,23.9c5.2,19.8,13.1,49.8,7,77.8c-6.3,29.3-30.1,51.4-53,72.8L384,175c-31.4,28.9-63.8,58.8-52.1,106.3
		c8.9,36.1,34,59.5,68.9,64.1c16.4,2.1,33.1-0.4,50.7-3.1c20.6-3.1,41.9-6.3,62.7-1.7c2.6,0.5,5.1,1.1,6.4,1.5
		c15.4,4.2,34.9,16.5,52.1,32.8c17.8,17.1,30.4,36.3,34.5,52.5c1.5,6.1,1.7,11.6,0.7,16.3l-0.1,0.2l-0.2,0.4
		c-30.7,38.2-86.5,81.7-135.8,120.1l-7.6,6c-7.9,6.2-15.5,12.2-22.8,17.9c-21.1,16.8-36.3,35.3-42.7,52.2c-6,15.9-7.3,30.1-3.9,43.2
		c6.5,24.9,23.8,40.2,42.2,56.3l1.7,1.5c10.6,9.4,21.6,19.1,30.8,31.1l0.6,0.6l-0.3,0.7c-0.2,2.7,0,5,0.1,7.2l0.1,1.7
		c0.2,3,0.4,5.8-0.6,8.8c-2.8,8-11.9,17.5-22.6,28.3l-1.6,1.6c-4,4.1-7.8,7.9-10.6,11.4c-4.8,5.7-8.9,10.9-13.4,16.7
		c-14.1,18.2-25.3,32.5-43.2,37.8C369.7,889.8,359.8,891.1,348.2,891.1z"/>
</g>
<g>
	<path class="st0" d="M662.2,338.8c-2.4,0-4.8-0.2-7.1-0.4c-18.3-2.1-33.7-9.8-50.1-17.9c-8.6-4.2-17.4-8.5-26.4-12
		c-26.3-9.9-51.7-16.9-73.6-20.3c-3.4-0.6-7-1-10.5-1.5c-2.2-0.3-4.3-0.6-6.4-0.9c-30.7-3.8-59.7-7.5-61.6-33.8v-0.1v-0.1
		c1.3-29,19.1-49.5,36.2-69.4l0.5-0.6c14.5-17,29.6-34.6,33.6-57c1.4-7.6,1.4-18.4-0.1-28.8c-1.9-14.9-7-32.1-12-48.8l-0.2-0.5
		c-2.4-7.7-4.8-15.8-6.8-23.7c-1.3-4.9-2.7-10-4.4-15.7c-0.6-2.3-1.3-4.7-2-7.1l-0.4-1.3h2.9l0.2,0.7c0.3,1.1,0.6,2.2,0.9,3.3
		c0.3,1.2,0.6,2.4,1,3.6c1.5,5.1,2.9,10.4,4.4,15.8c1.9,7,4.1,14.7,7,24.3l0.7,2.5c4.9,16.7,9.6,32.4,11.5,46.7
		c1.4,11,1.5,22.1,0.1,29.7c-4.3,23.6-20.5,42.3-34.8,58.8c-16.8,19.5-34.2,39.7-35.7,67.5c1.8,23.8,29.5,27.5,58.8,31.3l2.7,0.3
		c4.8,0.6,9.7,1.2,14.5,2c22.7,3.7,48.4,10.8,74.2,20.6c8.2,3,16.2,6.9,23.8,10.7l4.1,2c15.7,7.7,30.6,15,47.8,16.9
		c2,0.3,4.1,0.4,6.8,0.4c11.6,0,22-3.1,31.4-6.4c8.9-3.1,16.7-6.6,24.3-9.9l1.4-0.6c16.3-7.2,31.7-14,55.5-16
		c4.3-0.4,8.7-0.6,13.1-0.6c26.4,0,48.3,6.8,69.4,13.4l0.4,0.1c17.9,5.6,34.9,10.9,52.4,10.9c3.5,0,6.8-0.2,10.2-0.6
		c58.6-7.4,77.5-65.9,90.6-120.1c2.2-9.5,5.3-23.4,6.5-33.8c1.2-9.7-0.3-16.8-4.5-21.6c-7.7-8.9-23.8-9.5-42.4-10l-3.4-0.2
		c-7.6-0.3-15.5-0.7-23.3-1.7c-37.7-4.9-69.2-9.8-104.3-24.4c-31.1-13-61.3-28.9-76.5-37.2C730.5,59.8,694,38,668,0.6L666.9-1h3.3
		l0.3,0.4c25.4,36.3,61.5,58,93.4,75.4c28.2,15.3,53.9,27.8,76.3,37.2c34.9,14.5,66.2,19.4,103.5,24.1c8.8,1.2,17.7,1.5,26.2,1.8
		h0.2c18.4,0.6,35.9,1.1,44.4,11c4.8,5.3,6.5,13,5.2,23.7c-1,10.4-4.2,24.4-6.5,34.1c-6.3,25.9-14.3,55.5-28.6,78.7
		c-15.9,25.8-37,40-64.4,43.5c-3.3,0.4-6.9,0.6-10.5,0.6c-18.6,0-37.2-5.9-53.6-11.1c-21-6.6-42.7-13.4-68.6-13.4
		c-3.9,0-8.4,0.1-12.8,0.6c-23.9,2.1-39.3,8.9-55.6,16.1c-7.5,3.4-15.6,7-24.9,10.2C685.4,335.3,674.7,338.8,662.2,338.8z"/>
</g>
<path class="st0" d="M55,52.4C63,40,70.2,25,70.3,0h-0.8c-0.2,24.8-7.3,39.7-15.2,52C44.2,67.7,29.5,77,14,87c-4.7,3-9.4,6-14,9.3
	v0.9c4.7-3.3,9.6-6.4,14.4-9.5C30,77.7,44.7,68.2,55,52.4z"/>
<g>
	<path class="st0" d="M900.2,294.3c-22.9,0-38.4-3.4-54.8-7.1l-1.1-0.2c-13.5-3.1-26-5.8-41.8-7c-4.9-0.4-11.9-0.8-17.4-1.1
		c-3.8-0.2-6.7-0.4-7.8-0.5c-5-0.4-10.3-0.6-15.5-0.6c-19.6,0-36.5,3.1-52.8,6.1l-2.4,0.4c-14.6,2.6-28.4,5-43.3,5
		c-5.8,0-11.6-0.4-18.4-1.3c-40.2-5.7-95.2-13.5-129.5-30.5c-9.5-4.7-21.7-12.6-25.9-24.2l-0.1-0.2v-0.3c0-2.4-0.1-4.1-0.2-5.7v-0.4
		c-0.2-2.9-0.4-5.4,0.4-9.4c3.2-16,13.4-28.8,24.2-42.3l0.1-0.1c15.6-19.6,31.7-39.9,27-70.9c-1.6-11.2-6.4-21.9-11.1-32.4l-1-2.3
		c-1.7-3.6-3.4-7.4-4.8-11.2c-5.5-13.7-13.1-34.9-18.1-58l-0.3-1.2h2.9l0.2,0.8c4.9,22.6,12.4,43.7,18,57.3
		c1.6,4.1,3.5,8.4,5.4,12.4l0.3,0.6c4.8,10.7,9.8,21.8,11.5,33.5c4.8,32.5-12.5,54.1-27.7,73.2l-0.4,0.6
		c-10.4,13.2-20.2,25.7-23.2,40.6c-0.8,3.8-0.6,6.1-0.3,9c0,1.4,0.1,2.6,0.1,4.2l0.1,1.5c3.9,10.6,15.4,18,24.3,22.4
		c33.2,16.5,87.5,24.4,127.2,30.1l1.5,0.2c6,0.8,11.9,1.2,18.1,1.2c15.8,0,30.8-2.7,45.2-5.4c16.4-3,33.4-6.1,53.3-6.1
		c5.7,0,10.9,0.2,15.8,0.7c0.6,0,2.1,0.1,4.2,0.2c1.1,0.1,2.3,0.1,3.6,0.2c5.5,0.3,12.5,0.7,17.4,1.1c16.3,1.3,29.2,4.1,41.6,6.9
		l1.4,0.3c16.4,3.6,31.9,7.1,54.4,7.1c2.4,0,4.8,0,7.3-0.1c17.8-2.9,34.1-21.9,40.7-47.3c5.4-21.2,4.1-49.3-15.4-64.5
		c-23.7-18.4-93.2-34.7-130.7-37.8c-7.1-0.6-12.7-0.7-18.6-0.8h-2.5c-7.1,0-14.6,0-24.4-0.9c-26.3-2.3-48.1-12.7-72.7-34.5
		c-30.3-26.9-46.7-47.7-70.2-89c-2.4-4.1-4.8-9.5-7.4-16.4l-0.5-1.3h3l0.2,0.7c2.3,6.3,4.7,11.6,7,15.8
		c23.2,40.8,39.4,61.4,69.6,88.2c24.2,21.4,45.5,31.5,71.1,33.9c8.4,0.7,15.1,0.8,21.6,0.9h2.5c6.2,0,13.1,0.1,21.2,0.8
		c37.6,3,107.8,19.4,132,38.3c20.8,16.3,22.1,45.5,16.5,67.4c-6.9,26.5-24.2,46.4-43.1,49.3h-0.2c-1.3,0-2.5,0-3.8,0.1
		C902.6,294.3,901.4,294.3,900.2,294.3z"/>
</g>
<g>
	<path class="st0" d="M-1,437.1v-2.8l0.8-0.2c30.8-6.5,59.4-22.9,80.7-46.3c10.5-11.6,19.8-24,29.7-37.2l1.8-2.4
		c16.1-21.5,32.8-43.7,54.4-62.1c1.3-1.1,2.5-2.3,3.6-3.6l0.7-0.7c1.2-1.3,2.7-2.9,4.3-4.3c14.6-12.9,31.4-23.2,46.2-32.4
		c10.7-6.6,22-13.6,32.5-21.4c7.6-5.5,15.7-11.7,25-18.9l1.2-1c11.9-9.2,24.2-18.7,36.7-27.3c5.9-4,12.1-8.1,19-12.4
		c32.4-20.6,69.2-44,74.8-86.2c2.9-22.4-3-51.3-15.6-77.4l-0.7-1.4h3l0.3,0.6c12.8,26.7,18.7,56.2,15.7,78.7
		c-5.7,43.4-43.1,67.2-76,88.2c-7.5,4.7-13.3,8.4-19.1,12.4c-11,7.7-23.1,16.6-37.9,28.2l-4.6,3.5c-6.6,5.1-13.5,10.3-20.3,15.4
		c-9.8,7.2-20.2,13.7-30.3,19.9l-2.5,1.5c-15.5,9.6-31.6,19.5-45.9,32c-1.4,1.3-2.8,2.7-4,4c-1.4,1.5-3,3.1-4.6,4.6
		c-21.6,18.4-38.3,40.7-54.5,62.3l-0.2,0.2c-9.7,13.1-19.8,26.6-30.9,38.9l0,0c-22,24.3-50.4,40.7-82.3,47.4L-1,437.1z"/>
</g>
<g>
	<path class="st0" d="M-1,385.8v-3.2l0.5-0.3c10.8-5.5,24.3-13.4,32.3-25.1c10.3-15,10.3-42.6,9.2-65c-0.9-18.4-0.6-53.6,11.5-82.9
		c9.3-22.6,31.4-42.4,52.8-61.6l0.1-0.1c1.3-1.2,2.6-2.3,3.9-3.5c1.9-1.7,3.8-3.4,5.7-5.1c42.4-38.6,63.3-73.2,81.8-113.4
		c1.3-2.6,2.3-5.4,3.4-8c0.3-0.9,0.7-1.7,1-2.5c1.8-4.8,3.4-9.2,5.5-13.5c0.4-0.8,0.8-1.4,1.2-2.2l0.3-0.6h3.1l-0.7,1.4
		c-0.1,0.3-0.3,0.5-0.4,0.8c-0.3,0.6-0.6,1.2-0.9,1.7c-1.9,3.8-3.7,8-5.6,13.2c-0.4,1.1-0.8,2.1-1.2,3.2c-1,2.5-2,5.1-3.1,7.5
		C180.7,67,159.6,101.9,117,140.8l-9.6,8.7c-21.1,18.9-42.9,38.4-52.1,60.5c-11.9,28.9-12.2,63.7-11.3,81.9
		c1.1,22.9,1,51.1-9.7,66.6l0,0c-8.3,12.1-21.7,20-33.8,26.2L-1,385.8z"/>
</g>
<path class="st0" d="M11.7,21.6C16.9,16.3,19,8.1,19,0h-0.9c0,8-2.2,16.1-7,21.1C7.8,24.6,4,26.5,0,26.5v-0.1v0.8l0,0
	C4.2,27.3,8.3,25.3,11.7,21.6z"/>
<g>
	<path class="st0" d="M107.9,264.6c-7.5,0-12.9-3.5-16.1-10.5l-0.1-0.2c-3.1-12.1-3-21.5,0.1-30.3c8.7-24.4,31.6-37.8,51.7-49.6
		c14.7-8.7,28.7-16.9,37.1-28.4c15.3-20.6,29.4-50.9,40.7-75.2l0.8-1.7c0.6-1.3,1.2-2.7,1.8-4c0.6-1.3,1.2-2.6,1.8-3.9l0.1-0.2
		c7.9-17.5,16.1-35.5,27.4-48.8l0,0c3.7-4.4,8.3-8.6,14-12.9l0.3-0.2h4.9l-2.6,1.8c-5.5,3.8-10.3,8.2-14.2,12.8
		c-11.3,13.3-19.7,31.9-27.2,48.3c-0.6,1.3-1.2,2.7-1.8,4c-0.6,1.3-1.2,2.7-1.8,4l-0.5,1.1c-11.5,24.6-25.8,55.3-41.2,76.2
		c-8.9,12.1-23.7,20.8-38,29.3c-20.8,12.3-42.3,25-50.6,48.1c-3,8.3-3,17.3-0.2,28.4c2.6,5.9,7,8.7,13.5,8.7c10.5,0,23.7-8,30-13.5
		c11.1-9.3,20.9-22.4,30.4-35l0.4-0.6c5-6.8,10.2-13.7,15.5-20c1.1-1.3,11.1-13.1,19.7-18.3c18.4-10.8,42.6-19.3,66-27.5l0.2-0.1
		c33.8-11.9,68.7-24.1,90.3-43.8c11.2-10.3,18-26.3,18.5-44c0.6-18.9-6-36.9-18.6-50.7c-2.5-2.7-5.2-5.2-8-7.4l-2.3-1.8h4.5l0.3,0.2
		c2.5,2,5,4.4,7.5,7.1c13,14.3,19.9,33.1,19.4,52.8c-0.6,18.6-7.7,35.3-19.5,45.9c-22.1,20.3-57.3,32.6-91.3,44.5
		c-24.4,8.6-47.4,16.7-65.4,27.3c-6.9,4.1-15.2,13.4-18.4,16.9l-0.7,0.8c-5.1,6.2-10.2,12.9-15.1,19.5l-0.6,0.9
		c-9.9,13.5-19.7,26.3-30.9,35.7C133.2,256.1,119.3,264.6,107.9,264.6z"/>
</g>
<g>
	<path class="st0" d="M593.6,229.9c-10.1,0-19-3.1-25-8.7l-0.1-0.1l-0.4-0.8c-0.8-1.9-1.5-3.7-2.6-5h-0.7v-1
		c-1.9-21.2,19.6-34.2,40.6-37.3l0.6-0.6l0.6,0.6c12.3,3.2,23.6,7.1,26.8,19.3c1.6,6.7,0.2,12.9-4.1,18.6
		C622.2,223.8,607.9,229.9,593.6,229.9z M570.8,219.4c5.5,5,13.6,7.8,22.8,7.8c13.5,0,26.9-5.7,33.5-14.1c3.8-4.8,5-10.4,3.6-16.1
		c-2.8-10.6-13.3-14.2-24.8-17.2c-14.1,2.1-39.9,11.8-38.3,33.8C569.1,215.2,570,217.4,570.8,219.4L570.8,219.4z"/>
</g>
<g>
	<path class="st0" d="M832.2,242.8c-18.8,0-40-5.4-52.7-13.5l-0.4-0.3l-0.4-0.8c-0.6-1.7-1.3-3.8-2.6-5.2l-0.6-0.3V222
		c0.3-19.7,25-28.7,47.8-28.7c18,0,34.2,5.2,42.3,13.6c4.5,4.6,6.7,9.9,6.6,15.9v0.2l-0.1,0.2C866.5,240.3,844.7,242.8,832.2,242.8z
		 M781.4,227.3c12.5,7.6,32.8,12.7,50.8,12.7c11.7,0,32-2.3,37.3-17.5c0.1-5.1-1.9-9.7-5.7-13.6c-7.8-7.9-23.3-12.8-40.4-12.8
		c-21.3,0-44.3,7.9-45,25.3c1.3,1.6,2.1,3.5,2.8,5.4L781.4,227.3z"/>
</g>
<g>
	<path class="st0" d="M324.6,828.2c-15.3,0-31.1-5.3-42.2-14.2c-7.6-6-13.5-13.4-18.9-20.6c-21.4-29.1-39-68.3-53.9-119.8v-0.2
		c-1.8-30.1,2.8-49.9,7.3-69.1l0,0c3-12.4,5.5-23.7,6.5-37.1c2.2-27.5-2.1-44.8-6.3-61.5l-0.1-0.4c-2.4-9.5-4.9-19.3-6.1-30.9
		c-0.8-7.8-1.2-18.4,0.1-25c3.5-17.1,23.9-37.6,45.5-57.1c13-11.9,29.9-25.8,46.2-28.2c2.4-0.3,4.7-0.5,6.9-0.5
		c12,0,26.9,3.6,41.3,7.1c11.8,3,21.3,5.1,28.9,5.9c4.4,0.3,8.4,0.5,12.2,0.5c16.3,0,32.2-2.8,47.5-5.5l1.7-0.3
		c14-2.6,28.4-5.2,42.3-5.2c16,0,28.9,3.5,40.5,11.2c20.6,13.3,26.2,31.9,29.1,50v0.4v0.1c-4.6,38.2-32.2,63.2-56.6,85.3
		c-15.5,14.1-31.9,25.4-47.7,36.4l-1.6,1.1c-14.2,9.7-30.3,20.7-45.8,34.1c-35.6,30.7-53.4,74-47.8,115.9c1.4,11,5.6,22.7,9.3,33.1
		c4.2,12.1,7.9,23,9.3,33.6c2.5,19.7-1,35.2-10.4,46C353.3,822.8,340.1,828.2,324.6,828.2z M212.4,673
		c14.9,51.5,32.4,90.4,53.4,118.8c4.5,6.1,10.7,14,18.3,20.1c10.8,8.5,25.9,13.6,40.6,13.6s27.2-5,35.1-14.2
		c9-10.2,12.3-24.9,9.8-43.8c-1.4-11-5.8-23.3-9.3-33.1c-3.9-11.1-7.9-22.6-9.4-33.6c-5.7-42.8,12.5-87.1,48.7-118.4
		c15.8-13.8,31.9-24.8,46.1-34.5l2.3-1.6c15.5-10.7,31.5-21.7,46.7-35.5c24-21.8,51.1-46.5,55.7-83.4c-2.8-17.4-8.2-35.2-27.8-48
		c-11.4-7.3-23.8-10.7-39.2-10.7c-13.1,0-26.7,2.4-41.1,5l-0.8,0.1c-16.4,3.1-32.6,5.9-49.6,5.9c-3.5,0-8-0.1-12.5-0.5
		c-8-0.7-18-3.1-28.6-5.7l-0.5-0.1c-13.5-3.3-28.9-7.1-40.7-7.1c-2.7,0-4.8,0.1-6.6,0.4c-15.1,2.4-31.1,15.3-44.8,27.6
		c-21.2,19.4-41.4,39.5-44.6,55.8c-1.2,6.4-0.8,16.6,0,24.1c1.2,11.2,3.5,20.8,6,30.6l0,0c4.1,16,8.7,34.1,6.4,62.8
		c-1,13.5-3.5,25-6.5,37.6C215.2,624,210.5,643.7,212.4,673z"/>
</g>
<g>
	<path class="st0" d="M287.9,650.9h-0.4l-0.3-0.3c-14.5-7.7-17-24-19-37.1c-0.5-3.2-1.1-7-2-10.8v-0.2c-0.1-8.3-0.6-17.7-1.2-26.5
		c-0.9-18-2.1-40.4-0.7-60.4c2.3-30.9,10.8-54.1,26.6-72.9c22.4-26.4,44.7-28.6,81.6-32.4c1.9-0.3,3.8-0.5,5.8-0.7
		c0.8-0.1,1.6-0.2,2.5-0.2c13.8-1.4,28-4,39.3-6.1c10.3-1.9,21.1-3.9,30.2-4.8c4.2-0.4,8.1-0.6,11.9-0.6c28.4,0,40,11.5,44.6,21.1
		c7.4,15,2.5,36.8-12.4,55.5l-0.2,0.2c-3.3,2.4-5.7,5.6-8.1,8.7l-0.4,0.5c-3.4,4.3-6.8,8.7-12,11.3c-16.4,15.2-35.1,28-53.2,40.3
		c-27,18.4-55,37.4-80.1,66.3c-3.9,4.4-7.5,9.5-11.1,14.4l-1.6,2.3c-11.4,16.1-22.2,31.3-39.6,32.5L287.9,650.9z M269,602.4
		c0.8,3.8,1.4,7.8,1.9,10.9c2.2,13.7,4.4,27.9,17.3,34.8c15.8-1.2,26.1-15.7,37.1-31.1l1.8-2.5c3.6-5,7.2-10.1,11.2-14.6
		c25.2-29.1,53.4-48.3,80.6-66.9l0.3-0.2c19-12.9,36.9-25.1,52.8-40l0.2-0.2l0.2-0.1c4.9-2.4,8.1-6.6,11.2-10.7
		c2.7-3.4,5.4-6.7,8.8-9.4c14.1-17.6,18.8-38.1,12-52.4c-4.3-8.9-15-19.5-42.1-19.5c-3.9,0-8.1,0.4-11.6,0.7
		c-7.4,0.7-15.7,2.2-24.6,3.7c-1.8,0.3-3.5,0.6-5.3,1l-4.3,0.8c-10.8,1.9-23,4-35.2,5.4l-1.5,0.2c-2.4,0.2-4.6,0.5-6.8,0.6h-0.2
		c-37.3,3.9-57.9,6-79.4,31.5c-15.4,18.3-23.7,41-26,71.2l0,0c-1.5,19.1-0.4,40.2,0.6,58.8l0.1,1.5c0.1,3.2,0.3,6.3,0.4,9.3
		C268.6,591.3,268.9,597.1,269,602.4z"/>
</g>
<g>
	<path class="st0" d="M955,708.8c-45.6,0-93.4-27.2-123-52.7c-44-38.2-49.7-91.3-55.7-147.5l-0.8-6.6c-2.9-20.3-6.5-69.7,24.3-90.2
		c7.4-4.9,21.1-7.3,41.7-7.3c19.3,0,42.8,2.1,61.6,3.8c12.6,1.2,24.7,2.3,34.9,2.8c43.1,2.1,83.8,4.1,115.2,31.3
		c20.2,17.5,36.5,35.6,31.3,80.7c-2.4,20.5-11.7,44.9-21.5,70.6c-1.7,4.4-3.4,8.9-5.2,13.6c-0.3,1-0.7,1.9-1,2.9
		c-0.7,1.8-1.3,3.5-1.8,5.2c-8.8,24-16.4,44.7-31.5,62.4C1006.1,698.4,983,708.8,955,708.8z M841.5,407.3c-20,0-33.1,2.3-40,6.9l0,0
		c-29.5,19.5-26,67.7-23.2,87.5l0.8,6.9c6,55.6,11.6,108.1,54.7,145.4c29.1,25.2,76.2,52.2,121.1,52.2c27.2,0,49.5-10.1,66.3-29.9
		c14.8-17.5,22.4-37.9,31.1-61.6c0.9-2.7,1.9-5.4,3-8.1c1.2-3.5,2.6-7,3.9-10.5l1.9-5c9.4-25,18.3-48.6,20.6-68.1
		c5-43.7-10.8-61.3-30.5-78.3c-30.8-26.7-71-28.7-113.5-30.8c-9-0.4-19.3-1.3-30.3-2.3l-6.8-0.6
		C881.5,409.3,859.7,407.3,841.5,407.3z"/>
</g>
<g>
	<path class="st0" d="M951.4,671c-32.9,0-65.9-17-84.1-31.5c-39.5-31.3-44.1-73.2-49.3-121.8v-0.1c0-3-0.1-6.1-0.3-9.4
		c-0.5-17.9-1-36.3,6.8-52.2l0.1-0.1c13.6-21,39.9-23.7,61.3-23.7c7.2,0,14.3,0.4,21.8,0.8h0.3c33.7,1.8,65.5,3.5,90.9,21.2
		c27.5,19.1,42.5,54.8,40,95.6c-2.1,35.1-15.5,84.6-46.3,108.5C981.6,666.7,967.8,671,951.4,671z M827.1,457.5
		c-7.1,14.6-6.9,32.1-6.7,48.9v1.9c0.1,2.1,0.2,4.2,0.2,6.2c0,1,0,2,0.1,3.1c5.4,49.8,9.6,89.2,48.1,119.7
		c18.1,14.3,50.6,31.1,82.5,31.1c15.7,0,29-4.1,39.5-12.2c30.1-23.2,43.2-71.8,45.3-106.5c2.4-39.7-12.1-74.5-38.8-93.1
		c-24.6-17.1-56-18.8-89.3-20.6h-0.3c-7.4-0.4-14.5-0.8-21.6-0.8C865.3,435.2,839.9,437.7,827.1,457.5z"/>
</g>
<g>
	<path class="st0" d="M345.7,517.4H345l-0.3-0.3c-1.6-0.8-3-2.3-4.1-3.5l-0.5-0.5c-0.8-0.8-1.6-1.6-2.5-2.2l-0.1-0.1l0.2-0.9H337
		v-0.1c-0.5-12.9,3.8-24.3,12.7-33.6c16.1-16.7,42.9-22.7,62.6-22.7c4.4,0,7.7,0.2,10.6,0.5h0.8l0.3,0.4c0.7,0.9,1.7,1.8,2.7,2.7
		l0.6,0.6c1.2,1.1,2.4,2.3,3.3,3.7l0.2,0.3l0.2,0.4l-0.3,0.5c-1.9,10.5-11.2,18.9-18,24.3C393.9,501.7,368.3,513.4,345.7,517.4
		L345.7,517.4z M339.7,508.9c1.2,0.9,2.2,2,3,2.8c0.8,1,1.8,2,3.1,2.8c21.8-3.9,46.7-15.3,65.1-29.8c6.4-5,15-12.6,16.9-22.1
		c-0.9-1.2-2.1-2.3-3.1-3.3c-0.8-0.7-1.7-1.7-2.5-2.6c-3.5-0.3-6.8-0.5-9.8-0.5c-19.1,0-45.1,5.7-60.6,21.8l0,0
		C343.4,486.6,339.4,496.9,339.7,508.9z"/>
</g>
<g>
	<path class="st0" d="M942.2,630.8c-13.8,0-28.7-4.7-41.8-13.3l0,0c-35.3-22.9-41.1-68.5-41.4-93.6c-0.4-33.5,12.8-53.4,38.1-57.7
		c5.7-1,11.5-1.5,17.1-1.5c24,0,40.6,8.9,50.2,16.3c35.9,27.2,47.2,92.4,22.1,127C975.7,622.9,960.4,630.8,942.2,630.8z M897.6,469
		c-23.9,4-36.3,23-35.9,55c0.4,24.6,6.1,69.2,40.1,91.4c12.6,8.2,26.9,12.7,40.4,12.7c17.3,0,31.8-7.5,42-21.6
		c11.2-15.6,15.5-39.5,11.3-63.9c-4.2-25.1-16.2-46.7-32.7-59.3c-9.4-7.2-25.5-15.7-48.6-15.7C908.9,467.6,903.5,468.1,897.6,469z"
		/>
</g>
<g>
	<path class="st0" d="M132.9,870.4c-11.5,0-19.8-10.9-24-16.5l-0.2-0.2c-3.8-4.7-7-10.4-10.2-16.3v-0.1
		c-10-17.8-20.3-36.3-49.1-31.5c-13.9,2.2-29.9,9.8-48.7,23.1L-1,830v-3.5l0.4-0.3c18.9-13.4,35.1-21,49.4-23.3
		c30.6-5.1,41.4,14,51.9,32.5l0.3,0.5c3.3,6.1,6.3,11.5,9.9,16l0.4,0.5c4.9,6.2,13.2,16.5,24.2,14.9c12.4-1.8,28.7-16.6,25.7-38.4
		c-2.4-17.6-14.3-30.6-37.5-40.7c-0.8-0.3-1.6-0.7-2.3-1c-0.8-0.3-1.6-0.7-2.4-1c-11.9-5-23-9.7-28.4-21.3l-0.1-0.2
		c-5.2-21.8-6.2-50.9-7.3-81.7v-0.8c-0.8-24.2-1.8-51.6-5.3-74.9c-6.5-43.1-28.5-68.7-67.2-78.4c-3.8-1-7.2-1.7-10.6-2.2l-0.9-0.1
		V524l1.1,0.1c3.5,0.5,7.2,1.2,11,2.2c39.8,10.1,62.5,36.5,69.2,80.7c3.5,22.5,4.4,48.8,5.3,74.2l0.1,1.8
		c1.1,30.6,2.1,59.5,7.2,80.9c4.9,10.6,15.5,15.1,26.8,19.8c0.9,0.3,1.8,0.7,2.7,1.1c0.7,0.3,1.3,0.6,2,0.9
		c24.2,10.5,36.7,24.2,39.2,42.9c3.2,23.6-14.6,39.6-28.1,41.5C134.8,870.3,133.8,870.4,132.9,870.4z"/>
</g>
<g>
	<path class="st0" d="M-1,751v-3.3l0.4-0.3c7.5-5.3,13.7-10.6,18.8-16.2c17.2-18.9,26.3-47,25.1-76.9c-1.1-28.7-11.8-55-28.7-70.5
		c-4.7-3.3-9.7-5.6-14.9-7l-0.7-0.2v-2.8l1.2,0.3c5.7,1.4,11.2,4,16.1,7.6l0.1,0.1c17.4,15.8,28.5,42.9,29.7,72.4
		c1.2,30.7-8.2,59.4-25.9,78.8c-5.3,6-11.6,11.4-19.8,17L-1,751z"/>
</g>
<g>
	<path class="st0" d="M660.3,805.2c-32.3,0-70-15.2-91.7-36.9c-9.2-9.2-16.2-20.3-22.5-30.8c-15.3-25.2-29-51.9-40.7-79.4l-0.3-0.3
		v-0.6c0.3-2-0.2-4.1-0.7-6l-0.1-0.5c-0.4-1.4-0.8-3-0.9-4.6V646v-0.1c2.6-30.6,44.7-65.5,79-65.5c3.1,0,6,0.3,8.8,0.9
		c12.3,2.4,28.6,12.3,48.4,29.3c28.5,24.7,67.7,68.3,84.4,109.8c2,5.1,4.4,11.5,5.3,16.8l0,0c3.4,21.6-4.8,40-24.4,54.7
		C693.1,800.7,678.1,805.2,660.3,805.2z M507.9,657.2c12.1,28.1,25.7,54.7,40.4,79c6.8,11,13.6,21.6,22.3,30.2
		c21.3,21.3,58.1,36.1,89.7,36.1c17.3,0,31.7-4.3,42.8-12.7c18.7-14.1,26.6-31.6,23.4-52.1c-0.8-5-3.1-11-5.1-16.2
		c-16.6-41.2-55.3-84.3-83.5-108.7c-19.3-16.7-35.2-26.3-47.2-28.8c-2.3-0.5-4.9-0.8-8.2-0.8c-32.9,0-73.5,33.4-76.3,62.8
		c0.2,1,0.4,2.5,0.9,4l0.1,0.5C507.5,652.5,508.1,654.8,507.9,657.2z"/>
</g>
<g>
	<path class="st0" d="M645.8,770.8c-18.3,0-38.8-7.1-52.1-18.1c-21.1-17.3-28.1-41.5-35-71.3v-0.2c-0.5-13.4,3-24.6,9.9-31.7
		c6-6.2,14.1-9.4,24.1-9.4c2.6,0,5.5,0.3,8.7,0.8c15.9,2.5,36.5,13.8,53.6,29.5c18.7,17.1,30.9,36.9,33.4,54.3
		c0.8,5.2,1,12.8-0.3,18.1C683.3,760.6,668,770.8,645.8,770.8z M561.5,681c6.8,29.3,13.7,53,34,69.7c13,10.6,32.8,17.4,50.4,17.4
		c20.8,0,35.2-9.5,39.4-26l0,0c1.2-4.8,1.1-11.9,0.4-16.8c-5.5-35.9-52.5-76.4-84.8-81.6c-2.7-0.5-5.5-0.7-8.2-0.7
		c-9.4,0-16.8,2.8-22.1,8.4C564.3,658,561,668.5,561.5,681z"/>
</g>
<g>
	<path class="st0" d="M760.9,1103.7c-25.8,0-51.6-10.9-65.8-27.8c-10.1-12-14.1-26.3-11.3-41.3c4.5-21.3,22.6-34,40.2-46.3l0.1-0.1
		c16.4-11.4,33.3-23.2,39.6-42c4.1-12.2,2-26.1-0.1-40.7l-0.1-0.7c-2.3-16-4.7-32.6,1.3-47.6c8.4-21.6,33.8-43.5,59.1-50.9
		c5-1.5,9.4-2.1,14-2.1c2.4,0,4.4,0.1,6.4,0.4h0.2l0.5,0.2l0.2,0.2c16.1,12.8,20.5,43.5,22.5,68.8c3.7,44.3-4.1,62.1-13.1,82.8
		l-0.7,1.7c-2.7,6.2-5.5,12.7-8.1,20.2c-4.6,13.5-6.7,27-8.8,41.9l-0.2,1.4c-2.2,15.3-4.3,29.8-10.5,42l-0.1,0.1l-1.1,1.7
		c-6.3,9.6-12.3,18.6-21.1,25.1C792.5,1099.2,777.7,1103.7,760.9,1103.7z M837.9,807.1c-4.5,0-8.6,0.6-13.2,2
		c-24.5,7.1-49.1,28.3-57.1,49.2c-5.8,14.7-3.2,31.8-0.9,46.9c2.1,14.3,4.3,29.1,0,42.1c-6.7,19.6-24,31.7-40.7,43.4
		c-17.9,12.6-34.9,24.5-39.2,44.6c-2.5,14.1,1.2,27.7,10.7,39c13.6,16.2,38.6,26.6,63.6,26.6c16.5,0,30.7-4.3,41.3-12.4
		c8.5-6.6,14.2-15,20.7-24.8l0.9-1.3c6.2-12.4,8.3-27.7,10.4-42.4l0.1-0.8c2-13.5,4-27.5,8.7-41.5c2.8-8.2,5.7-14.9,8.9-22.2l0,0
		c8.9-20.4,16.6-38,13.1-81.3c-2.2-24.6-6.6-54.4-21.5-66.6C841.8,807.2,840,807.1,837.9,807.1z"/>
</g>
<g>
	<path class="st0" d="M101.4,1031.7c-13.7,0-29.6-9.1-33.3-26.5c-1.6-10.2,3.5-24.3,12.8-35.2c7.7-8.9,16.8-13.9,24.9-13.9
		c4.9,0,9.4,1.8,13.5,5.2c13.6,11.7,16.7,43.5,5.7,58.6C119.3,1027.5,111,1031.7,101.4,1031.7z M105.8,958.9
		c-7.4,0-15.6,4.7-22.6,12.8c-8.8,10.3-13.7,23.5-12.3,32.9c3.4,15.9,17.9,24.3,30.5,24.3c8.7,0,16.3-3.8,21.3-10.6
		c10.4-14.2,7.5-43.9-5.2-55C114,960.4,110.2,958.9,105.8,958.9z"/>
</g>
<g>
	<path class="st0" d="M386,1090.2c-6.2,0-11.3-3.2-14.3-9l-0.3-0.2v-0.4c-0.4-5.5,1.6-11.1,5.7-15.5c4.4-4.8,10.5-7.6,16.5-7.6
		c3.9,0,7.7,1.2,11,3.6l0.5,0.5l0.1,0.3c0.2,1,0.7,2,1.2,3l0.6,1.2c0.7,1.3,1.3,2.6,1.5,4.1v0.3
		C407.4,1081.8,395.7,1090.2,386,1090.2z M374.4,1080c2.4,4.8,6.5,7.4,11.7,7.4c8.5,0,18.7-7.3,19.7-17.1c-0.2-0.9-0.7-1.9-1.2-2.9
		c-0.1-0.3-0.3-0.5-0.4-0.8c-0.1-0.2-0.2-0.5-0.4-0.7c-0.5-0.9-1-1.8-1.3-2.9c-2.8-1.9-5.8-2.8-8.8-2.8c-5.2,0-10.6,2.5-14.5,6.7
		C375.7,1070.8,374,1075.5,374.4,1080z"/>
</g>
<path class="st0" d="M1470.8,14.6c19.1,9.3,41.5,10.2,60,2.6c9.3-3.9,17.2-9.8,23.2-17.2h-0.9c-5.8,7.1-13.4,12.7-22.5,16.4
	c-18.4,7.6-40.6,6.7-59.5-2.5c-6.1-2.9-11.9-7.6-17.5-13.9h-1.1C1458.4,6.7,1464.4,11.5,1470.8,14.6z"/>
<path class="st0" d="M795.2,47c7.4,5.2,14.5,10.9,21.4,16.2c16.6,13,32.2,25.1,49.4,30.9c19.3,9.6,37.7,14.4,55.3,14.4
	c14.6,0,28.6-3.3,41.7-10c38.8-19.5,60.7-62.1,69-98.5h-0.8c-8.4,36.1-30,78.5-68.6,97.9c-28.8,14.5-61.3,13-96.4-4.5
	c-17.2-5.7-32.7-17.9-49.3-30.9c-6.8-5.3-13.9-10.9-21.4-16.2c-8-5.7-16.3-11.3-24.4-16.6c-14.6-9.7-29-19.2-41.6-29.7h-1.3
	c12.9,10.8,27.5,20.5,42.5,30.4C778.8,35.7,787.1,41.2,795.2,47z"/>
<g>
	<path class="st0" d="M1513.4,381.8L1513.4,381.8c-44.1,0-67.8-28.1-93-57.9c-4.4-5.2-9.7-11.5-15.6-18.3
		c-15.7-18.2-32-37.1-44.2-54.2c-12.3-17.2-22.6-35.9-33-55.2l-0.3-0.6c-8.8-16.2-17.9-33-28.4-48.6c-0.4-0.6-0.9-1.2-1.3-1.8
		s-0.9-1.2-1.3-1.8c-15.1-19.6-38.5-29.7-61.2-39.6c-5-2.1-10.1-4.4-13.9-6.1c-11.8-5.4-25.1-8-36.8-10.2c-1.6-0.4-3.1-0.7-4.8-1
		c-1.4-0.3-2.9-0.6-4.4-0.9c-3.2-0.7-7-1.7-11.5-3l-0.4-0.1c-7.1-2-14.4-4.1-21.5-4.1c-2.1,0-3.8,0.1-5.3,0.4h-0.3
		c-7.9,1.3-17.7,2.9-27.1,2.9c-19,0-30.8-6.4-36.2-19.5l0,0c-5.5-13.5-3.4-37-1.9-54.2c0.2-2.8,0.4-5.5,0.6-8.1l0.1-0.9h2.8
		l-0.1,1.1c-0.1,1.2-0.2,2.5-0.3,3.7c-0.1,1.5-0.3,3-0.4,4.5c-1.6,18.9-3.4,40.4,1.8,52.8c4.9,11.9,15.9,17.7,33.7,17.7
		c8.8,0,18-1.3,26.5-2.8h0.2l0.3,0.1c1.6-0.2,3.6-0.4,5.5-0.4c7.3,0,14.6,2.1,21.6,4.1l1,0.3c3.5,1,7.6,2.2,11.3,3
		c3,0.6,6,1.2,9.1,1.8c13.7,2.6,26,5.2,37.4,10.5l1.3,0.6c4.1,1.8,8.3,3.7,12.5,5.5c22.9,9.9,46.6,20.2,62.2,40.4
		c1,1.3,2,2.7,2.7,3.9c10.4,15.5,19.6,32.2,28.8,49.4l0.4,0.6c9.9,18.2,20.2,37.1,32.4,54.2c12.1,16.9,28.3,35.7,44,53.9
		c4.4,5,10.2,11.7,15.7,18.2c24.6,29.3,47.9,56.9,90.7,56.9h0.1c11.1,0,22.7-1.7,35.7-5.3c37.3-10,103.3-35,125.8-89.4
		c5.9-14.1,9.8-33.9,14-54.9l0.3-1.7c3.4-17.1,6.9-34.7,11.5-49.1l2,0.3v2.9c-4.2,13.6-7.5,29.9-10.9,46.9l-0.2,1.2
		c-4.2,21.1-8.2,40.9-14.1,55.4c-23.1,55.7-89.9,81-127.7,91.1C1536.2,380.1,1524.3,381.8,1513.4,381.8z"/>
</g>
<path class="st0" d="M1400.2,24.2c23.4,31.7,65,50.6,111.2,50.6c11.5,0,22.6-1.2,33.2-3.5c41.1-9.1,54.2-37.1,60-71.3h-0.8
	c-1.8,10.9-4.4,21-8.3,30.1c-9.5,21.9-25.8,34.8-51.1,40.4c-10.5,2.3-21.6,3.5-33,3.5c-45.9,0-87.2-18.8-110.5-50.3
	c-2.6-6.7-4.8-14.9-6.9-23.7h-0.8C1395.2,9,1397.5,17.2,1400.2,24.2L1400.2,24.2z"/>
<path class="st0" d="M1176.3,40.8c20.9,3,40.8,9.2,60,15.2c12.4,3.9,25.2,7.9,38.3,11c8.3,2,16.6,3.6,24,4.7
	c7.5,1.1,14.2,1.7,19.8,1.7l0,0c11.4,0,18.2-2.4,20.3-7.1c5.8-12.6,10.3-39.9,10.6-66.4h-0.8c-0.2,26.4-4.7,53.5-10.4,66.1
	c-2,4.4-8.7,6.5-19.7,6.5c-5.5,0-12.1-0.5-19.6-1.6c-7.4-1.1-15.6-2.7-23.9-4.7c-13-3.1-25.8-7.1-38.2-11
	c-19.3-6-39.2-12.3-60.2-15.3c-20.6-2.9-37.1-17.1-46.8-39.9h-0.9C1138.4,23.3,1155.2,37.7,1176.3,40.8z"/>
<g>
	<path class="st0" d="M1527.8,348.5c-28.2,0-52-10.8-70.9-32.1c-12.4-13.9-23.1-28.7-34.5-44.3l-2.5-3.4c-6-8.3-12.2-17-18.8-25.3
		c-36.8-47.1-53.4-85.6-57.2-132.7c-1.3-12.3,2.1-26.8,15.8-30.9l0.2-0.2h0.5c23.1,1.4,47.6,9,71.4,16.4l1.8,0.6
		c26.5,8.3,53.9,16.9,79.6,16.9c4.7,0,9.2-0.3,13.6-0.9l1.8-0.2c1.8-0.2,3.7-0.5,5.6-0.8c25.5-3.2,60.3-7.5,80.2-22.9
		c18.9-14.6,19.8-39.3,20.9-68v-0.5c0.2-6,0.4-12.2,1-18.4c0-0.2,0-0.5,0-0.8c0-0.2,0-0.5,0-0.8v-1h3l-0.2,1.2
		c0,0.3-0.1,0.5-0.1,0.8s-0.1,0.6-0.1,0.9c-0.4,6-0.6,12.1-0.8,18v0.7c-1.1,29.5-2.1,54.9-22.1,70.4c-20.5,15.9-55.7,20.3-81.5,23.5
		c-0.8,0.1-1.6,0.2-2.4,0.3c-1.7,0.2-3.3,0.4-4.9,0.6c-3.9,0.4-8.9,0.9-14.1,0.9c-25.9,0-53.3-8.5-79.8-16.8l-1.5-0.5
		c-23.8-7.4-48.4-15.1-71.4-16.5c-12,3.5-15,16.7-13.7,27.9c3.7,46.4,20.1,84.4,56.6,131.3c7.5,9.7,14.5,19.3,21,28.3
		c12.2,16.9,22.5,30.9,34.6,44.6c18.5,20.7,41.6,31.3,68.9,31.3c31.7,0,67.5-14.9,98.1-40.8c31.5-34.1,36.2-79.5,38.3-123.1
		c0.2-3.3,0.3-6.7,0.4-10.8l0.1-1.5c0.6-17.4,1.3-39,10.1-49.9c8.5-10.7,18.7-18.5,26.6-24.1l1.6-1.1v3.3l-0.4,0.3
		c-7.6,5.4-17.4,12.9-25.6,23.2c-8.4,10.5-9,31.9-9.5,49.1v0.8c-0.1,1.9-0.1,3.7-0.2,5.4c-0.1,1.9-0.1,3.7-0.2,5.4
		c-2.2,44.1-7,90.1-39.2,124.9l-0.1,0.1C1596.7,333.4,1560.2,348.5,1527.8,348.5z"/>
</g>
<g>
	<path class="st0" d="M1671.1,440.2c-9.9,0-20.1-1-30.4-3.1h-0.3l-0.5-0.4c-1.3-1.4-2.8-3-4.6-4.4l-0.3-0.3l-0.3-0.5v-0.2
		c-1-9.6,7.8-16.6,13-20.7l0.1-0.1c9.6-7.8,22-13.5,36-19.6c5.6-2.5,11.5-5.2,17.6-8.3l1.4-0.7v3.1l-0.6,0.3
		c-5.1,2.5-10.7,5.2-17.2,8.1c-12.6,5.7-25.7,11.7-35.3,19.3l-0.1,0.1c-5,3.9-12.5,9.8-12.1,17.7c1.5,1.3,2.8,2.7,4,4
		c19.4,3.9,40,3.9,60.1-0.3l1.2-0.3v2.8l-0.8,0.2C1691.8,439.1,1681.4,440.2,1671.1,440.2z"/>
</g>
<path class="st0" d="M1682.9,6.7c0.9,10.9,9.7,20.6,18.9,20.6v-0.8c-8.8,0-17.3-9.3-18.1-19.8c-0.2-2.3-0.2-4.5-0.1-6.6h-0.8
	C1682.7,2.1,1682.6,4.4,1682.9,6.7z"/>
<g>
	<path class="st0" d="M1541.5,308.7c-13.6,0-26.3-3.6-36.7-10.4c-22.1-14.5-31-42-39.7-68.7c-3.8-11.5-7.7-23.4-12.7-33.9l-0.1-0.2
		v-0.2c-1.7-10.7,4.8-17.5,19.3-20.1c14.9-2.6,30.5-7.2,45.6-11.6l0.6-0.2c14.2-4.1,26.9-7.8,38.7-10.1c5.9-1.1,11.4-1.6,16.4-1.6
		c18,0,33.9,6.3,41.5,16.4c11.3,15.2,16,37.2,12.9,60.4c-2.9,22.1-12.4,42.8-25.4,55.5C1586,299.5,1563.5,308.7,1541.5,308.7z
		 M1455.1,194.9c4.7,9.9,8.3,20.8,12.1,32.4l0.7,2.1c8.5,26,17.4,52.9,38.5,66.7c9.9,6.5,22.1,9.9,35.2,9.9
		c21.3,0,43.1-8.9,58.4-23.9l0,0c25.3-24.6,36.4-80.1,12.3-112.1c-7.1-9.6-22.2-15.5-39.4-15.5c-5.2,0-10.6,0.5-15.8,1.6
		c-11.8,2.3-24.6,6-38.1,10l-0.2,0.1c-15.2,4.5-31.2,9.2-46.6,11.9C1459.1,180.4,1453.7,185.7,1455.1,194.9z"/>
</g>
<g>
	<path class="st0" d="M860.7,788l-0.3-0.3c-12.2-7.9-19.4-19-27-30.8c-4-6.4-7.4-11.7-11.6-16.7c-8.8-11.1-19.6-21.9-31.8-33.9
		l-1.3-1.3c-11.9-11.9-24.2-24.2-34.5-37.1c-27.8-34.8-46.7-78-65-119.7c-0.8-1.9-1.6-3.7-2.5-5.6c-2.2-4.9-4.4-10-6.6-14.9
		c-3.6-7.8-7.8-16.1-11.6-23.2c-7-13.2-13.2-25.2-17.4-36.7c-4.5-14.7-0.7-25.4,12.9-37.1c7-5.9,15.2-11.7,21.8-16.3l0.4-0.3
		c2.4-1.6,5-3.4,7.8-5.4c8.3-6.2,16.1-12.8,23.6-19.1l2.7-2.3c16.4-14,32-27.3,49.5-33.8c8.6-3.2,17.8-4.8,27.9-4.8
		c18.1,0,36.5,5.1,54.3,10.1l0.6,0.2c11,3.1,21,5.8,31,7.7c12.8,2.4,26.3,3.7,40.1,3.7c10.9,0,22-0.8,32.8-2.4
		c36.5-5.3,73.8-19.2,117.5-43.7c9.5-5.4,19-11.5,26.9-16.9c9.4-6.3,18.7-12.3,28.2-17.5c4.1-2.3,8.4-3.8,12.5-5.2
		c0.9-0.3,1.8-0.7,2.8-1c2.3-0.8,4.6-1.7,6.9-2.7c2.4-1.2,5.1-2.6,8.3-4.4l0.8-0.4c6.1-3.3,11.9-6.4,19.1-7.8
		c5.8-1.1,12.7-1.7,19.4-1.7c9.7,0,17.8,1.1,24.1,3.4c23.5,8.3,44.2,22,63.1,35.5c2.8,2.1,5.6,4.2,8.3,6.3c1.5,1.2,3,2.4,4.5,3.5
		c4.7,3.7,10.2,8,15.9,11.9c4.7,3.3,9.9,5.7,15,8.1c4.2,1.9,9.1,4.3,13.8,7.3c24.5,15.7,45.9,38.6,63.5,68.1
		c16.8,28.2,27.1,50.4,6.6,80.5c-6.4,9.6-14.4,12.5-25,15.5c-11.8,3.4-24.2,4-35.2,4.4l-1.9,0.1c-12.8,0.7-26,1.3-37.9,6
		c-7,2.7-13.1,6.9-17.7,10.3c-1.7,1.2-3.1,2.2-4.3,3.2l-0.9,0.7c-5.5,4.1-11.1,8.2-17.4,11.3c-8.7,4.4-18.2,9.4-28.5,14.9
		c-3.6,1.9-7.3,3.8-10.8,5.7c-2.5,1.3-4.9,2.6-7.4,3.9c-9.7,5-19.6,10.2-29.2,15.3c-4.5,2.4-8.9,4.7-13.3,7
		c-8.1,4.4-15.9,8.5-23.7,12.6c-0.1,0.1-0.2,0.3-0.3,0.4c-0.1,0.1-0.2,0.3-0.4,0.4l-0.2,0.4l-0.3,0.1c-38.2,21-52.9,54.6-63.1,87.8
		c-0.7,2.4-1.4,5-2.2,7.4l-0.1,0.3c-7.1,23.7-13.8,46-38.3,58.5c-12,6.2-33.3,12-63.2,17.4c-42.7,7.7-83.9,10.1-127.6,12.7
		L860.7,788z M798.2,351.4c-9.6,0-18.5,1.5-27.1,4.6c-17.3,6.4-33.2,20.1-48.6,33.3l-1.1,0.9c-8.1,6.8-16.4,13.9-25.4,20.6
		c-1.9,1.4-4.1,3-6.7,4.8l-2.9,2c-6.5,4.5-13.8,9.6-20.2,15.2l0,0c-12.6,10.7-16.1,20.5-12,33.9c3.5,11.4,9.6,23,16,35.3l1.3,2.4
		c3.8,7.2,7.7,14.6,11,22c2.4,5.2,4.8,10.8,7.2,16.2l1.9,4.3c18.3,41.5,37.2,84.5,64.5,119c9.4,11.9,21,23.6,32.1,34.8l3.4,3.4
		c11.7,11.5,23.1,22.9,32.1,34.1c4.4,5.5,8.2,11.4,11.8,17c7.4,11.5,14.4,22.4,25.9,29.8l3.7-0.2c45.5-2.7,84.7-5,126.5-12.6
		c29.9-5.4,50.9-11.2,62.4-17.2c23.6-12.1,30.2-33.9,37.1-57.1l0.5-1.6c0.5-1.9,1.1-3.8,1.7-5.8c10.3-33.7,25.3-67.8,64.2-89.4
		c0.3-0.4,0.7-0.8,1-1l0.4-0.3c8-4.1,16.1-8.4,23.9-12.7c13.6-7.2,27.8-14.6,41.5-21.8l1.1-0.6c5.7-3,11.5-6.1,18.3-9.7
		c8.6-4.6,18.6-10,28.6-14.8c5.9-2.9,11.3-6.9,16.6-10.8l1.4-1c1.1-0.7,2-1.4,3.1-2.2c0.4-0.3,0.9-0.7,1.3-1
		c5.1-3.7,11.2-7.9,18.2-10.6c12.6-4.9,25.9-5.7,40.7-6.3l2.3-0.1c10.8-0.5,21.9-1.1,32.3-4.2c10.4-2.9,17.6-5.5,23.6-14.3
		c19.6-28.7,9.6-50.3-6.7-77.6c-17.2-28.9-38.2-51.5-62.6-67.2c-4-2.6-8.5-4.7-12.9-6.7l-1.3-0.6c-5-2.4-10.1-4.8-14.7-8
		c-5.1-3.6-10.2-7.5-15-11.2l-0.9-0.7c-3.7-3-8-6.3-12.8-9.7c-17.7-12.8-38.9-27-62.3-35.2c-7.7-2.8-16.8-3.3-23.2-3.3
		c-6.1,0-12.9,0.6-18.9,1.8c-6.7,1.3-12.4,4.3-18.3,7.6l-0.8,0.4c-2.9,1.7-5.7,3.1-8.5,4.4c-3,1.5-6.2,2.6-9.2,3.6l-0.6,0.2
		c-4.7,1.5-8.7,3.1-12,4.9c-9.4,5.2-18.5,11.2-27.9,17.5l-3.9,2.5c-7.5,4.9-15.3,10-23.3,14.4c-44,24.7-81.6,38.7-118.4,44
		c-10.9,1.6-22,2.4-33,2.4c-13.4,0-27.1-1.3-40.7-3.7c-10.4-2-21.2-5-31.3-7.8C834.6,356.6,816.3,351.4,798.2,351.4z"/>
</g>
<g>
	<path class="st0" d="M946,744.2c-16.5,0-31.7-2.1-44.2-6.1c-24.7-7.8-46.9-24.1-72.6-42.9l-0.5-0.3l-1.1-0.9
		c-48-35.2-71.8-70.5-87.9-130.3l-1.7-6.6c-5.3-19.7-10.4-38.3-14.2-59.3c-2.4-14.4-2.7-26.5-0.8-38.2c5.1-31.7,32.9-72.3,66.1-82.3
		c6.5-2,13.7-2.9,21.8-2.9c14.4,0,28.6,3.4,41.1,6.4c5.7,1.4,11.3,2.7,16.3,3.6c17.2,3,36.1,4.4,59.4,4.4c13.2,0,26.7-0.4,38.6-0.8
		c11.3-0.4,25.4-0.8,39-0.8c21.9,0,38.8,1.1,54.7,3.4c1.2,0.2,2.4,0.4,3.5,0.5c2.7,0.4,5.4,0.8,8,1.3l1.7,0.3
		c11.7,1.8,22.7,3.5,33.6,3.5c15,0,27.6-3.4,39.5-10.8c11.7-7.3,21.2-10.6,32.8-11.4c5.5-0.3,11.2-0.9,16.6-1.5l3.8-0.4
		c11.1-1.2,24-2.5,36.4-2.5h0.5c27.4,0.1,94.1,10.1,113.5,39.3c6.7,10,7.4,21.5,2.2,34c-7.1,17-28.5,27.1-44.6,30.7l-1.4,0.3
		c-2.7,0.6-5.2,1.2-7.8,1.7c-21.5,4.6-40.2,8.1-57.1,10.5c-4,0.6-8.1,0.9-12,1.3l-1.5,0.1c-10.7,1-20.8,1.9-31.2,6.5
		c-58.7,25.7-97.4,94.4-119.5,147.5c-16.9,40.8-31.6,76-72.1,92.8C989.6,740.4,967.6,744.2,946,744.2z M811,376.7c-7.1,0-14,1-21,3
		c-32.2,9.7-59.1,49.2-64.1,80l0,0c-2,12-1.6,23.8,1.2,37c3.7,21.7,9.1,41.2,14.2,60.1l1.5,5.8c15.8,59.1,39.4,94,86.8,128.8
		l1.7,1.4c25.4,18.7,47.4,34.8,71.8,42.5c12.3,3.9,27.2,6,43.2,6h0.1c21.4,0,43-3.7,57.9-9.9c39.5-16.3,53.9-51,70.6-91.3
		c22.4-53.6,61.5-122.9,120.9-148.9c10.5-4.6,20.5-5.6,31.2-6.7l1.8-0.2c4-0.4,8.1-0.8,12.3-1.3c16.5-2.3,35.1-5.7,57-10.4
		c1.5-0.3,3-0.7,4.6-1c1.5-0.3,3-0.6,4.5-1c15.5-3.4,35.9-13.1,42.6-29c4.9-11.6,4.2-22.2-1.9-31.5c-18.9-28.2-84.2-38-111.2-38.1
		h-0.5c-11.4,0-23.2,1.2-34.5,2.3l-1.6,0.2c-6.6,0.7-13.7,1.4-20.5,1.9c-11.1,0.8-20.2,4-31.4,11c-12.3,7.6-25.3,11.2-41,11.2
		c-11,0-22-1.7-33.7-3.5l-2-0.3c-3.7-0.6-7.6-1.2-11.5-1.8c-16.2-2.3-33.4-3.4-54.2-3.4c-12.6,0-25.1,0.4-39,0.8
		c-11.9,0.4-25.4,0.8-38.6,0.8c-24.1,0-43.2-1.4-60-4.4c-5.4-1-11.1-2.4-16.6-3.7L851,383C838.8,380,824.9,376.7,811,376.7z"/>
</g>
<g>
	<path class="st0" d="M1541.1,974.3c-5.7,0-10.9-1-15.6-3c-29.7-12.4-44.6-38.2-59.1-63.2l-0.8-1.4c-14.7-25.5-29.9-51.8-60.9-63.7
		c-37.1-14.3-67.1-28.1-94.4-43.5c-3.9-2.1-8.3-4-13.5-5.7c-3.5-1.1-7-2.1-10.4-3c-18.3-5-35.5-9.7-40.6-33.8
		c-5.2-24.1,5.7-58.1,19.1-79.2c7.2-11.1,17.3-14.6,28.9-18.6l2.7-0.9c20.9-7.3,37-10.5,53.9-10.5c8.7,0,17.7,0.9,27.7,2.7
		c24.2,4.4,40.4,10.8,52.7,20.8c12.1,10.1,20.1,23.7,26,44c1,3.7,2,7.5,2.9,11.2c0.4,1.7,0.9,3.5,1.3,5.2l0.1,0.3
		c5.7,24.1,11.6,49,36.6,49c2.6,0,5.4-0.4,8.8-0.9c3.8-0.7,9.4-2.8,13.9-4.6c43.8-18,82.8-68.6,90.9-117.7
		c2.2-13.5,1.7-27.2,1.2-40.4l-0.1-2.8c-0.4-11.1-0.8-22.6,0.5-33.9c1.8-15.1,5.2-20.5,10.7-29.5l0.1-0.2c1.5-2.4,3.3-5.2,5-8.3
		l0.2-0.4l0.2-0.1c15.8-12.8,34.3-19.3,54.8-19.3c0.3,0,0.6,0,0.9,0c5.4,0,10.9,0.5,16.9,1.4l0.8,0.1v2.8l-1.2-0.2
		c-6-0.9-11.5-1.4-16.6-1.4c-20.4,0-38.6,6.3-53.9,18.8c-1.8,3.1-3.5,5.9-5.1,8.5l-0.4,0.6c-5.2,8.6-8.3,13.7-9.9,27.7
		c-1.3,11.3-0.9,23-0.4,35c0.5,13.1,1,27.9-1.2,42.1c-4.1,24.2-15.5,49.5-32.2,71.4c-17,22.2-38.4,39.4-60.4,48.5
		c-2.7,1.1-9.6,3.9-14.5,4.9c-2.8,0.6-5.9,0.8-9.3,0.8c-27.4,0-33.8-27.3-39.4-51.5c-1.3-6-2.7-11.5-4.1-16.2
		c-11.2-38.5-30.5-54.4-76.6-62.9c-9.7-1.8-18.6-2.7-27.1-2.7c-16.8,0-32.7,3.1-53,10.3c-0.3,0.1-0.6,0.2-1,0.3
		c-0.6,0.2-1.1,0.3-1.7,0.6c-10.7,3.6-20.8,6.9-27.5,17.4c-13.2,20.6-23.9,53.6-18.9,77.2c4.8,22.3,21.2,26.8,38.7,31.6
		c2.7,0.7,6.7,1.8,10.4,3c5.5,1.7,10.2,3.6,14.1,5.9c27.2,15.2,57.1,29,94.1,43.3c32.2,12.5,47.7,39.5,62.7,65.6l0.2,0.4
		c14.2,24.7,29,50.3,57.9,62.4c9.5,4,22,3.5,35.6-1.2c20.9-7.3,39.5-29.7,53.4-48.5c22.2-29.8,49.8-66.9,82.7-90.8
		c1.1-0.8,2.1-1.5,3.1-2.2l1.6-1.1v3.5l-0.4,0.3c-0.4,0.3-0.9,0.6-1.3,0.9c-0.4,0.3-0.9,0.6-1.3,0.9c-32.1,23.4-59.4,60-81.4,89.3
		l-0.7,0.9c-14.3,19.1-33.5,41.9-54.8,49.3C1555.1,972.9,1547.7,974.3,1541.1,974.3z"/>
</g>
<g>
	<path class="st0" d="M1641.1,781.9c-3.6,0-6.5-2.1-8.8-3.7l-0.7-0.3V777c0.7-16.3,4.8-38,8.4-57.1c4.3-22.2,8.2-43.9,10.1-64.9
		c0.5-5.2,0.8-10,1-14.7l0.1-1.8c0.9-13.9,1.6-25.9,5.7-37.7c5.8-16.9,20-27.9,36.2-28c2.9,0,5.8,0.4,8.9,1.1l0.8,0.2v2.8l-1.2-0.3
		c-3-0.7-5.8-1.1-8.5-1.1c-14.9,0-28.1,10.3-33.5,26.1c-4,11.5-4.7,23.3-5.6,37l-0.1,2.2c-0.3,4.6-0.6,9.3-1,14.3
		c-1.8,22-6.2,44.9-10.1,65.2c-3.6,18.7-7.6,39.9-8.4,55.9c2.1,1.5,4.3,2.7,6.7,2.7c0.4,0,0.7,0,1-0.1c7.5-4.3,15.4-8.2,23.1-12
		l2.1-1c11.4-5.5,23.1-11.3,33.8-18.6l1.6-1.1v3.3l-0.4,0.3c-10.8,7.3-22.5,13-33.8,18.5l-0.8,0.4c-7.9,3.9-16.3,8.1-24.3,12.6
		l-0.2,0.2l-0.3,0.1C1642.5,781.8,1641.8,781.9,1641.1,781.9z"/>
</g>
<g>
	<path class="st0" d="M1369.1,768.1c-19.8,0-42.5-20-47.2-36.3v-0.4c0.1-17.1,15.6-24.7,31-24.7c13.8,0,26.7,5.8,33.6,15.1
		c5.5,7.5,8.1,17.9,6.6,26.5c-1.2,6.7-4.9,12.3-10.5,16.1C1378.6,766.8,1374.1,768.1,1369.1,768.1z M1324.7,731.3
		c4.5,15.4,25.8,34,44.4,34c4.6,0,8.6-1.1,11.8-3.3c5.1-3.4,8.3-8.3,9.4-14.2l0,0c1.4-7.9-0.9-17.4-6-24.2
		c-6.3-8.6-18.3-13.9-31.3-13.9C1339.1,709.6,1325,716.3,1324.7,731.3z"/>
</g>
<g>
	<path class="st0" d="M1549.2,906.2c-14.6,0-24.4-11.8-27.6-23.5v-0.2c-2.3-37.3,30.6-53.3,52.3-63.9c1.5-0.6,2.8-1.3,4.5-2.2
		c2.6-1.3,5.2-2.8,7.8-4.3l0.1-0.1c7-4.1,14.2-8.3,21.2-8.3c1.7,0,3.4,0.3,4.9,0.9l0.5,0.2l0.4,0.4l0.1,0.2c3,9.2-2.3,21.8-7,32.9
		l-0.9,2.1c-10.5,24.8-25.9,54.6-51.7,65.3l-0.2,0.1C1552.1,906.1,1550.7,906.2,1549.2,906.2z M1524.3,882
		c2.9,10.6,11.7,21.3,24.8,21.3c1.2,0,2.3-0.1,3.5-0.3c24.7-10.2,39.7-39.4,50-63.7l1-2.3c4.4-10.2,9.3-21.8,7.1-30
		c-1.1-0.3-2.3-0.4-3.4-0.4c-6.4,0-13.5,4.2-19.9,8c-0.8,0.4-1.5,0.9-2.3,1.3c-2,1.1-3.8,2.2-5.7,3.1c-0.5,0.3-1.1,0.5-1.7,0.8
		c-0.9,0.4-1.8,0.9-2.7,1.3C1552.7,832,1522.2,846.9,1524.3,882z"/>
</g>
<g>
	<path class="st0" d="M1322.5,1185.6c-4.7,0-9.8-0.6-15.6-1.8c-3.3-0.7-6.4-1.5-9-2.3c-11-3.8-16.5-10.7-19.1-23.9
		c-2.5-13.3-2.9-29.4-1.1-44.2c2.5-19.9,14.3-40.1,32.2-40.1c7.5,0,15.3,3.6,23.1,10.8l0,0c11.2,10.3,19,26.1,21.2,43.4
		c1.6,12,2.6,34.9-3.9,44.9C1344.6,1181.1,1335.3,1185.6,1322.5,1185.6z M1310.1,1076.2c-16.2,0-27.1,19-29.4,37.7
		c-1.8,14.8-1.4,30.6,1.1,43.2c2.3,12.4,7,18.3,17.1,21.7c2.6,0.9,5.6,1.6,8.7,2.3c5.3,1.1,10.2,1.7,15,1.7c11.8,0,20.4-4,25.5-11.9
		l0,0c6-9.2,4.9-32.1,3.5-42.9c-2.2-16.5-9.6-31.7-20.4-41.7C1324.1,1079.6,1317,1076.2,1310.1,1076.2z"/>
</g>
<g>
	<path class="st0" d="M-1.1,1361.2v-2.8l0.8-0.2c13-2.5,26.5-4.3,41.6-6.3c12.4-1.6,27.1-3.5,41.6-6.1c7-1.2,12.9-2.6,18.6-4
		l1.4-0.3c6.3-1.6,14.1-3.4,24.1-5c9.3-1.4,18.9-2.1,26.2-2.5c19.1-1.3,38.9-2.6,55.9-11.5c20.7-10.8,22.7-38.5,15.5-61.1
		c-12.3-39.5-28.2-66.7-48.5-83.1c-8.1-6.5-15.8-14.2-23.2-21.6l-0.8-0.8c-14.4-14.2-29.3-28.9-48.5-36.7
		c-15.6-6.3-34.3-11.1-49.4-15.1c-11.1-2.8-21.1-5.4-30.7-8.4c-3.5-1-7.1-2.3-10.9-3.7c-1.4-0.5-2.8-1-4.2-1.5c-2.9-1-5.8-2-8.7-3.1
		l-0.6-0.2v-2.9l1.3,0.5c1,0.4,2,0.7,3,1.1c2.1,0.7,4,1.4,6,2.2c4.5,1.7,9.9,3.7,14.9,5.2c8.7,2.7,17.8,5.1,26.7,7.4l4.6,1.2
		c16.7,4.3,33.9,8.8,49,15c20.1,8.1,35.4,23.3,50.3,38.1c7.6,7.7,15,15.1,22.9,21.4c20.8,17,37,44.6,49.4,84.4
		c7.5,23.8,5.2,53-16.9,64.6c-17.6,9.3-38.5,10.6-57,11.7c-8.5,0.6-17.5,1.3-25.9,2.5c-8.5,1.3-15.1,2.9-22.1,4.6l-1.7,0.4
		c-5.7,1.4-12.4,3-20.1,4.4l0,0c-14.4,2.6-29.2,4.5-41.8,5.9c-15.1,2-28.7,3.8-41.5,6.3H-1.1z"/>
</g>
<g>
	<path class="st0" d="M-0.9,1318.3v-2.8l0.8-0.2c12.6-2.4,24.8-4.9,36.6-8.7c8.1-2.6,16.8-5.2,28.4-8.4l1.4-0.4
		c17.4-5,35.4-10.1,52.5-17.6c16.3-7,34.2-15.9,41.9-33.3c9.9-22.4,0.2-46.6-25.9-64.7c-3-2.1-6-4.3-8.9-6.4c-1.5-1.1-3-2.2-4.4-3.2
		c-17.6-13-34.3-25.2-58.5-29.9c-14.9-2.8-37.9-4.8-62.9-5.3h-1v-2.8h1c24.9,0.6,48,2.6,63.4,5.4c25.1,4.9,42.7,17.9,59.7,30.5
		c4.2,3.2,8.6,6.4,13.3,9.6c27.2,18.9,37.2,44.4,26.9,68.1c-8.1,18.3-25.9,27.2-43.4,34.7c-17.1,7.5-35,12.6-52.4,17.5l-1.8,0.5
		c-9.1,2.5-18.8,5.2-28.3,8.3c-11.7,3.8-24,6.2-35.8,8.5L-0.9,1318.3z"/>
</g>
<g>
	<path class="st0" d="M-0.9,1396.6v-2.8l0.8-0.1c18.8-2.9,38.5-2.2,59.3-1.5h0.6c17.9,0.7,36.4,1.4,54.7-0.5
		c16-1.6,30.8-4.9,45.1-8.1l1.8-0.4c3.7-0.9,7.5-1.7,11.1-2.5l8.4-1.8c26.7-5.6,57-11.9,81.1-28.2c27.1-18.5,30.6-57.2,18.3-84
		c-11.4-24.6-30.6-44.2-49.1-63.1l-1.2-1.2c-15.4-15.8-31.3-32.1-42.8-51.4c-4.6-6.1-8.9-12.4-14-20.5c-13.4-20.9-23.9-37.4-52.1-44
		c-56-13.1-104.3-24.4-113.4-80.7c-3.1-19.7,1.1-35,5.2-49.9l0.1-0.5c3.1-10.8,6.3-21.9,5.7-34.2c-1-0.9-2-1.9-2.9-2.8
		c-0.3-0.3-0.7-0.7-1-1c-1.7-1.7-3.4-3.4-5.2-4.9c-3.3,0.3-6.5,0.7-9.4,1.3L-1,914v-2.8l0.8-0.2c2.6-0.6,6-1.2,10.1-1.4h0.7l0.3,0.3
		c2.2,1.7,4.2,3.7,5.9,5.5c1.3,1.4,2.7,2.8,4.2,4.2l0.3,0.4l0.2,0.4v0.2c0.7,12.8-2.4,23.9-5.7,35.6l-0.1,0.3
		c-4,14.6-8.2,29.7-5.2,48.9c8.8,54.5,56.3,65.6,111.2,78.4c29,6.8,39.9,23.6,53.7,45l0.1,0.1c4.1,6.4,8.5,13.3,13.9,20.4l0.1,0.1
		c11.4,19.1,27.2,35.3,42.6,50.9l0.7,0.7c18.9,19.3,38.4,39.3,50.1,64.5c13,27.8,9.4,68-19.1,87.3c-23.8,16.2-52.9,22.5-81.1,28.5
		l-1,0.2c-1.4,0.3-2.8,0.6-4.1,0.9c-1.4,0.3-2.8,0.6-4.2,0.9c-2.5,0.5-5,1-7.4,1.6c-1.2,0.3-2.5,0.6-3.7,0.8
		c-15.3,3.6-30.5,6.9-47.2,8.6c-17.8,1.7-35.5,1.3-55.1,0.5l-3.7-0.1c-19.6-0.6-38.1-1.1-55.8,1.6L-0.9,1396.6z"/>
</g>
<g>
	<path class="st0" d="M773.1,1355.8c-18.4,0-37.1-3.1-54-9c-29.6-10.2-48.1-21.9-55.1-51.6c-4.8-20.7-12.3-36.5-24.9-53
		c-4.9-6.5-12.7-15.6-22-22.3c-2-1.4-4.5-2.6-6.8-3.7l-0.6-0.3c-3.7-1.9-7.6-3.8-10.2-7c-5.3-6.5-4.3-17.7-1.1-25.9
		c3.7-9,9.7-14.7,16.5-15.5c3.9-0.4,9.8-0.9,15.8-0.9c24.4,0,48.7,5.9,74.4,12.2l3.2,0.8c15.1,3.8,32.6,8.1,49.9,10.9
		c5.2,0.7,10.9,1.1,18,1.1c3.9,0,8.2-0.1,11.7-0.2c3.7-0.1,8-0.2,12.1-0.2c21.5,0,43,2.5,54.4,20.7c13.9,22.2,9.5,46.8,5.1,70.5
		c-1,5.3-2.2,11.6-3,17.7c-3.8,28.2-24.3,47.7-56.4,53.4C791.7,1355,782.5,1355.8,773.1,1355.8z M630.7,1169.6
		c-5.9,0-11.7,0.5-15.5,0.9c-5.7,0.7-11,5.8-14.2,13.8l0,0c-3.6,8.9-3.3,18.4,0.6,23.2c2.3,2.7,6.3,4.6,9.8,6.2c0.7,0.4,1.3,0.7,2,1
		c1.8,0.9,3.7,1.9,5.3,3c7.2,5.2,14.8,12.9,22.4,22.8c12.8,16.7,20.4,32.8,25.5,54.1c6.7,28.4,24.6,39.7,53.4,49.7
		c16.8,5.7,35.1,8.7,53.2,8.7c9.6,0,18.6-0.8,26.7-2.3c30.8-5.6,50.6-24.3,54.2-51.2c0.7-5.9,1.8-12.1,2.9-17.8v-0.2
		c4.2-23.2,8.5-47.2-4.8-68.3c-10.7-17-31.4-19.3-52.1-19.3c-4,0-8.2,0.1-12.1,0.2c-2,0-4,0-5.9,0c-2,0-3.9,0-5.8,0
		c-8.1,0-13.6-0.3-18.5-1.1c-17.3-2.7-34.8-7-50.2-10.8C681,1175.8,655.8,1169.6,630.7,1169.6z"/>
</g>
<g>
	<path class="st0" d="M756.3,1322.7c-9.4,0-21.2-1.6-24.2-9.1c-1.5-3.7-1.2-7.8,0.8-12.1c5.6-11.7,24.5-22.6,33.5-25.3
		c8.5-2.6,17.4-0.2,23.8,6.4c4.6,4.7,7.3,11.2,7.2,17.3c-0.2,7.9-4.8,14.3-12.9,18.1c-1.2,0.6-2.7,1.1-4.1,1.6
		C775.3,1321.1,765.3,1322.7,756.3,1322.7z M735.2,1302.6c-1.7,3.5-1.9,6.8-0.7,10c1.9,4.7,9.6,7.4,21.7,7.4c9.1,0,18.8-1.6,23.2-3
		c1.2-0.4,2.5-0.9,3.8-1.5c7.1-3.3,11.1-8.9,11.2-15.6c0.1-5.5-2.3-11.3-6.4-15.4c-4-4.2-9.3-6.5-14.9-6.5c-1.9,0-4.1,0.3-6.1,0.9
		C758.8,1281.2,740.6,1291.6,735.2,1302.6z"/>
</g>
<g>
	<path class="st0" d="M790.1,1664.2h-4.6l-0.3-0.2c-39.7-29.8-70.4-56.4-74.2-104.1c-0.6-38.9,3.3-82,36.7-107.4
		c24.4-18.4,93.8-27.1,127-29.1c3.6-0.3,7.5-0.6,11.2-0.8c9-0.7,19.2-1.4,28.6-1.4c16.6,0,27.9,2.4,35.6,7.6
		c17.2,11.4,19.6,36.4,21.9,60.6l0.1,1.3c0.7,6.9,1.5,14.1,2.6,20.8c2.9,17.2,8.9,35.3,14.3,51.2l0.5,1.6
		c5.3,16,10.3,31.2,11.8,43.8c0.2,2.1,0.2,4.1,0.1,6.5c0,0.5,0,1,0,1.5c0,1.4,0,2.8,0.1,4.1c1.6,12.4,0,27.7-4.4,43.2l-0.2,0.7H994
		l0.4-1.3c4.4-15.5,5.9-30.2,4.4-42.5c-0.2-1.7-0.2-3.5-0.1-6c0.1-2.1,0.1-4.1-0.1-6c-1.3-12.1-6.2-27-11.5-42.7l-0.7-2.1
		c-5.4-16.1-11.5-34.4-14.3-51.8c-1-6.2-1.9-13.5-2.6-22.2l-0.1-0.7c-2.3-23.3-4.7-47.3-20.7-57.8c-7.3-4.9-18.1-7.1-34-7.1
		c-9.2,0-18.9,0.7-28.3,1.4h-0.1c-3.7,0.3-7.5,0.6-11.2,0.8c-33,2-101.7,10.5-125.4,28.6c-32.4,24.6-36.3,66.9-35.8,105
		c3.8,46.6,34.4,73,74,102.7L790.1,1664.2z"/>
</g>
<g>
	<path class="st0" d="M112.2,1664.1h-2.8l0.1-1.1c1.4-12,1.8-24.5,1.2-37.1c-0.6-11.3-0.2-22.6,0.2-33.5c0.6-15.7,1.2-32-1.8-44.8
		c-6.8-30.5-45.7-52.5-79.8-62.8c-10.1-3.1-19.4-4.1-29.2-3.4l-1.1,0.1v-2.8l0.9-0.1c10.1-0.8,19.7,0.3,30.2,3.4
		c34.9,10.6,74.7,33.2,81.8,64.9c2.8,12.4,2.4,27.6,1.9,43.8l-0.1,1.8c-0.4,10-0.7,21.7-0.2,33.3c0.6,12.8,0.2,25.4-1.2,37.4
		L112.2,1664.1z"/>
</g>
<g>
	<path class="st0" d="M846.6,1664.4H842l-0.3-0.2c-0.2-0.2-0.4-0.4-0.7-0.6c-0.1-0.1-0.3-0.3-0.4-0.4
		c-13.7-12.6-27.3-22.3-40.5-31.7l-1.4-1c-28.6-20.6-51.2-36.9-57.8-68.7c-4.3-30-2.9-70.5,27.4-93.4c18.5-14,49.2-22.3,82.1-22.3
		c27.2,0,51,5.9,63.7,15.9c18.9,14.7,21.9,36.8,25.8,64.7l0.5,3.6c0.4,3.1,0.9,6.3,1.4,9.6c2.4,15.9,7.1,31.7,11.2,45.6l0.2,0.6
		c3.3,10.8,5.8,19.5,7.2,26.7l0,0c3.1,16.2,1.9,34.2-3.3,50.8l-0.2,0.7H954l0.4-1.3c5-16.2,6.1-33.8,3.1-49.6
		c-1.3-6.9-3.8-15.2-6.4-24.1l-0.7-2.3c-4-13.3-9-30-11.5-46.5c-0.3-2.1-0.6-4.2-0.9-6.3c-0.3-2.4-0.6-4.7-1-6.9l-0.1-0.5
		c-3.7-27-6.7-48.4-24.6-62.4c-12.3-9.6-35.5-15.4-62-15.4c-32.4,0-62.4,8.1-80.3,21.7c-29.5,22.2-30.6,61.6-26.3,90.7
		c6.4,30.8,28.9,46.9,57.3,67.2l1.4,1c12.3,8.9,26.3,19.1,40,31.4c0.2,0.2,0.5,0.4,0.7,0.7c0.3,0.3,0.6,0.6,1,0.9L846.6,1664.4z"/>
</g>
<g>
	<path class="st0" d="M161.1,1664.3h-2.9l0.4-1.3c3.6-11.1,7.3-22.5,11.7-32.4c15.2-35.1,47.5-53.1,78.8-70.4l1.6-0.9
		c19.4-10.8,37.8-21,51.2-35.1c4-4.8,7.9-10.1,11.5-15.1l0.2-0.3c15.4-20.7,32.8-44.2,61.8-40.8h0.5l0.3,0.3
		c15.8,11.4,11.9,26.9,8.8,39.4v0.1c-0.8,3.1-1.7,6.7-2.1,9.8c-1.8,14.9,0.7,36.6,4,48.2l0,0c4.7,16.3,11.1,32.6,18,49.9l1.9,4.8
		l2.1,5.1c4.9,12.1,10.1,24.7,14.5,37.4l0.5,1.3H421l-0.2-0.7c-5.2-14.8-11.2-29.5-16.4-42l-1.7-4.2c-7.1-17.6-13.8-34.1-18.5-50.8
		c-3.4-11.5-5.9-33.6-4-49.2c0.4-3.1,1.3-6.7,2.2-10.1c3.1-12.2,6.6-26.1-7.4-36.4c-27.2-2.9-44.1,19.8-59,39.9l-1.4,1.9
		c-3.5,4.8-6.9,9.3-10.5,13.5c-14.2,15-33.2,25.5-53.4,36.6c-30.9,17.1-62.8,34.7-77.8,69c-4.3,9.9-8.1,21.6-11.5,31.9L161.1,1664.3
		z"/>
</g>
<g>
	<path class="st0" d="M862,1608c-38,0-84-22.9-94.3-65.3v-0.2c-1.6-33.3,7.5-47.1,22.7-58.5c11.7-8.8,29.4-14.1,47.3-14.1
		c22.7,0,42,8,52.9,22c15.1,19.5,15.8,55.2,1.9,98.1l-0.3,0.5c-4.9,6.5-9.8,11.7-15,16l-0.4,0.4h-0.4
		C871.4,1607.6,866.7,1608,862,1608z M770.5,1542.5c9.9,40.9,54.5,62.9,91.5,62.9c4.8,0,9.6-0.5,13.7-1.1c5-4.2,9.6-9.2,14.1-15.2
		c13.5-42.3,12.9-77-1.6-95.2c-10.3-13.4-28.8-21-50.6-21c-17.3,0-34.4,5-45.6,13.5C777.5,1497.3,768.8,1510.5,770.5,1542.5z"/>
</g>
<g>
	<path class="st0" d="M671.9,1664.2h-3.3l-0.3-0.3c-0.3-0.3-0.6-0.7-0.9-1.2c-15-21.8-20.6-49.5-25.5-74
		c-5.9-28.3-11.9-57.6-30.4-80.9c-7.7-9.7-16.9-14.4-28.1-14.4c-2.5,0-4.6,0.2-6.6,0.5c-30.3,4.4-66.7,32.1-86.2,47l-0.3,0.2
		c-21.6,22.6-29.7,50-24.9,83.7c1.7,12.4,5.4,26.2,8.8,38.2l0.4,1.3h-2.9l-0.2-0.7c-3.5-12.5-7-25.8-8.8-38.3
		c-5-34.7,3.5-62.8,25.8-86.1l0.1-0.1c18.3-14,56.4-43.2,87.9-47.9c15.4-2.3,27.6,2.6,37.4,15c18.6,23.5,24.8,52.8,30.7,81.2
		l0.3,1.7c5.2,25.3,10.6,51.4,24.8,72.4c0.4,0.4,0.8,1,1.1,1.4L671.9,1664.2z"/>
</g>
<g>
	<path class="st0" d="M828.7,1538.2c-1.7,0-3.3-0.3-4.9-0.9h-0.3l-0.4-0.4c-1.1-1.3-2.3-2.2-3-2.8l-0.1-0.1
		c-1.8-1.9-2.6-4.4-2.4-7.2c0.4-3.6,2.7-7.4,5.7-9.8l0.2-0.2l0.2-0.1c1.6-0.6,3.4-1,5.1-1c5.2,0,10.2,3.1,13.4,8.4l0.3,0.3v0.4
		c0,0.4,0,0.9,0,1.3c0,1,0,1.9,0,2.9v0.2l-0.2,0.4C839.3,1535,834.2,1538.2,828.7,1538.2z M824.8,1534.8c1.2,0.4,2.5,0.6,3.8,0.6
		c4.5,0,8.5-2.5,11-6.7c0.1-1.1,0.2-2.1,0.1-3.3c-2.7-4.2-6.8-6.7-10.9-6.7c-1.4,0-2.7,0.2-3.9,0.7c-2.4,1.9-4.1,5-4.5,7.9
		c-0.2,1.9,0.3,3.5,1.5,5C822.8,1532.9,823.8,1533.8,824.8,1534.8z"/>
</g>
<g>
	<path class="st0" d="M71.4,1664.2h-2.8v-1c0-4.7-0.2-9.5-0.7-14.2c-2.6-27.6-13.1-66.8-30.1-87.7c-9.7-11.8-18.6-16.5-38-20.1
		L-1,1541v-2.8l1.2,0.2c20.4,3.8,29.7,8.8,39.8,21.1l0,0c17.3,21.3,28.1,61.1,30.8,89.1c0.4,5.1,0.6,10,0.6,14.5V1664.2z"/>
</g>
<g>
	<path class="st0" d="M508.8,1664.3H506l-0.2-0.8c-1.8-8.1-3.2-16.7-4-25.4c-2-22,2.6-41,13.1-53.5c7.4-8.8,17.1-13.9,28.2-14.9
		c1.2-0.1,2.5-0.1,3.6-0.1c33.6,0,45.5,38.7,56,72.8c0.6,1.8,1.1,3.5,1.7,5.3c1.7,5.4,3.3,10.5,5,15.2l0.5,1.3h-3l-0.2-0.7
		c-2-5.5-3.8-11.6-5.8-17.9l-0.7-2.3c-10.3-33.3-22-71-53.3-71c-1.1,0-2.2,0-3.3,0.1c-10.3,0.9-19.4,5.7-26.3,13.8
		c-9.9,11.9-14.3,30.2-12.5,51.6c0.7,7.9,2.1,16.4,4,25.3V1664.3z"/>
</g>
<g>
	<path class="st0" d="M398.3,1664.2h-3l-0.3-0.6c-1.1-2.4-2.4-4.8-3.7-7.1c-16.4-30.2-39.1-49.3-62.2-52.5
		c-5.7-0.7-10.9-1.1-16.1-1.1c-43.2,0-82.4,23.3-102.4,60.8l-0.3,0.5h-3.2l0.8-1.5c9.9-18.6,24.7-34.3,43-45.4
		c18.7-11.2,40.1-17.1,62-17.1c6,0,11.3,0.4,16.3,1.1c23.9,3.2,47.4,22.9,64.4,53.9c1.2,2.2,2.5,4.7,3.8,7.5L398.3,1664.2z"/>
</g>
<g>
	<path class="st0" d="M20,1664.2h-2.8v-1c0-5.3-1-10.5-2.7-14.8c-3.1-6.9-7.7-10.6-13.4-10.6H-1v-2.4l0.7-0.2
		c0.5-0.2,0.9-0.2,1.4-0.2c6.8,0,12.6,4.5,15.9,12.3c1.9,4.6,3,10.4,3,15.9V1664.2z"/>
</g>
<g>
	<path class="st0" d="M357.1,1664.2h-4.5l-0.3-0.2c-11.3-8.7-25.1-13.3-40-13.3c-15,0-30.1,4.7-42.5,13.3l-0.3,0.2h-4.8l2.6-1.8
		c13-9.3,29.1-14.4,45.1-14.4c15.9,0,30.6,5,42.5,14.4L357.1,1664.2z"/>
</g>
<g>
	<path class="st0" d="M1032.9,1664.2h-2.8l0.3-1.2c0.7-3,1.3-5.9,1.8-8.6c3.9-21.6,3.6-45.8-0.8-71.9c-1.3-7.4-3.2-15.2-5.2-23.5
		c-5.5-22.9-11.3-46.5-5-65.2c8.3-24.3,34.2-29.9,54.9-34.4c2.4-0.4,4.6-0.9,6.8-1.4l3.6-0.8c30-7.2,61-14.5,88.1-29.5
		c8.7-4.8,18.4-9.2,27.8-13.5l2.9-1.3c3.3-1.5,6.6-3.1,9.8-4.6c13.7-6.5,34.8-14.3,56.9-14.8h2.4c61.7,0,81.4,56.8,98.8,107
		c3.7,10.9,7.7,22.3,12.1,32.6c7.6,18.1,17.2,35.7,26.4,52.7l0.2,0.4c8,14.6,15.5,28.4,21.9,42.6c6.7,14.5,13.4,25.6,20.6,33.7
		l1.5,1.7h-3.8l-0.3-0.3c-7.3-8.4-14.2-19.8-20.6-33.8c-6.5-14.2-14-27.9-22-42.4c-8.8-16.1-18.8-34.3-26.8-53.4
		c-4.3-10.2-8.1-21.2-12.1-32.8l-0.1-0.2c-17.1-49.3-36.6-105.1-96.1-105.1c-0.8,0-1.5,0-2.3,0.1h-0.1c-21.9,0.5-42.4,8.2-55.8,14.5
		c-3.2,1.6-6.6,3.2-10.1,4.7c-10.5,4.8-20.7,9.6-30,14.8c-28,15.4-59.7,22.9-90.5,30.1l-0.4,0.1c-2.7,0.7-5.6,1.3-8.3,1.9h-0.2
		c-20,4.2-44.9,9.5-52.7,32.4c-6.1,18-0.2,42.3,5,63.6c2.2,9.1,3.9,16.6,5.2,23.8c4.5,25.8,4.8,50.2,0.8,72.8
		c-0.2,0.9-0.4,1.8-0.5,2.7c-0.4,1.9-0.8,4-1.3,6L1032.9,1664.2z"/>
</g>
<g>
	<path class="st0" d="M1554.6,1664.3h-3.5l1.3-1.6c4-4.9,7.2-10.5,9.4-16.8c5.3-15.4,8.8-38.6,11.6-57.3c2.5-16.8,5.1-34.2,8.8-47.9
		c13.3-49.1,47-85,97.4-104.1c4.3-1.6,11.5-3.6,17.5-4.6c0.7-0.1,1.5-0.3,2.3-0.4c0.7-0.1,1.5-0.2,2.2-0.4l1.2-0.2v2.9l-0.9,0.1
		c-0.8,0.1-1.6,0.2-2.3,0.4c-0.7,0.1-1.3,0.2-2,0.3c-6.2,1.2-13.3,3.3-17,4.6c-49.6,18.8-82.7,54.1-95.7,102.2
		c-3.7,13.5-6.3,30.8-8.8,47.6v0.1c-3.1,20.9-6.3,42.5-11.7,57.7c-2.2,6.1-5.4,11.9-9.6,17.1L1554.6,1664.3z"/>
</g>
<g>
	<path class="st0" d="M732.4,1664.1H728l-0.3-0.2c-18.2-15.4-29.9-30.3-36.7-47c-8.6-20.8-16.4-71.9-8.8-114
		c7.9-43.1,31.7-70.3,70.8-80.7c16.6-4.3,35-6.8,55.5-9.4c2.8-0.4,5.7-0.8,8.6-1.2c7.9-1.1,16.1-2.2,24.1-3.5
		c22.9-3.8,48.9-8,70.4-21.6c22.6-14.1,27-33.6,32.2-56.1c0.2-1,0.4-2,0.7-3c0.4-1.6,0.7-3.3,1.2-5c4.9-20.5,23.5-36.5,39.9-50.7
		l0.3-0.3c2.8-2.3,5.4-4.5,7.9-6.7c0.8-0.7,1.6-1.4,2.3-2.1c4.5-4.2,9.3-8.3,14.4-12.6l2.6-2.2c15.5-13.2,31.5-26.9,41.7-42.5
		c3.9-6,8.3-11.7,12.5-17.3l1.8-2.3c7.7-10.1,15.6-20.6,20.8-32.6c7.1-16.1,13.1-33.1,19.2-50.6c2.4-7.1,4.6-13.1,6.5-18.5
		c9.7-27.2,18.9-52.8,31.5-78.9l1.6-3.2c7-14.8,14.1-29.2,23.2-41c12.5-16.2,30.8-23.6,47-30.2l0.1-0.1c4.3-1.8,8.5-3.6,12.6-5.4
		l3.6-1.6c24.5-10.7,45.6-19.9,75.6-15.9c18.4,2.4,37.6,10.3,60.6,24.7c24.6,15.6,46.9,37.3,66.3,64.5c9.3,12.8,18.1,28.2,26.1,45.6
		c0.6,1.5,1.3,3,1.9,4.5c1.2,2.8,2.4,5.7,3.7,8.6c11.9,28.3,25.3,60,57,60c3.7,0,7.6-0.4,11.8-1.3c15.2-3.2,30-10.6,44.4-17.8
		l1.8-0.9c14.1-7.2,30.1-15.4,46.6-19.1l0,0c25.8-5.6,49.3,0.5,70.9,7.9l0.7,0.2v2.9l-1.3-0.5c-21.1-7.5-44.3-13.7-69.8-8.1
		c-15.7,3.5-31.1,11.2-46,18.7l-0.9,0.5c-14.8,7.5-30.1,15.2-45.8,18.5c-19.1,4.1-34.5-0.8-47.2-15c-10.9-12.2-18.3-29.7-24.9-45.2
		c-0.7-1.5-1.3-3.1-2-4.5c-1.3-3-2.5-5.8-3.7-8.5c-7.7-16.7-16.3-31.9-25.7-45c-19-26.8-41-48.3-65.5-63.8
		c-22.3-14.1-41.2-21.8-59.4-24.4c-29.2-3.9-50,5.3-74.2,15.8c-5.8,2.6-11.8,5.1-16.3,7c-15.8,6.4-33.7,13.6-45.9,29.2
		c-9.4,11.9-16.3,26.4-23.1,40.4l-1.5,3.2c-12.7,26.3-22.2,52.9-31.5,78.6c-1.9,5.4-4.1,11.4-6.5,18.5c-5.5,16-11.7,34.1-19.2,50.9
		c-5.7,12.7-14.1,23.7-22.2,34.4l-1.8,2.3c-3.9,5.1-7.9,10.4-11.5,15.8c-10.4,16.2-26.9,30.1-42.7,43.6l-0.2,0.1
		c-6.1,5-11.6,9.9-16.2,14.1c-2.9,2.7-6.2,5.5-9.6,8.5l-1.4,1.2c-15.8,13.8-33.8,29.4-38.4,48.8c-0.3,1.5-0.7,3.1-1.1,4.6
		c-0.3,1.1-0.6,2.3-0.8,3.4l-0.1,0.3c-5.3,23-9.9,42.9-33.3,57.5c-21.8,13.7-48,18.1-71.2,22h-0.3c-9.8,1.6-19.7,2.9-29.3,4.2
		l-3.5,0.5c-18.7,2.5-38.1,5-55.2,9.6c-37.9,10-61,36.3-68.8,78.4c-7.6,41.4,0.2,91.9,8.6,112.4c7,16.8,18.7,31.6,36.7,46.6
		L732.4,1664.1z"/>
</g>
<g>
	<path class="st0" d="M1490.3,1483.3c-13.8,0-26.2-6.2-36-18.3c-6.4-8-12.1-18.4-17.3-28.3l-0.9-1.6c-5.1-9.3-10.3-19-16.4-26.8
		c-10.8-13.7-25.1-24.6-39-35.2l-1-0.8c-14.1-10.9-28.8-22.1-39.7-36.3c-2.7-3.7-4.6-7.6-6.5-12c-2.7-6-5.5-12.3-11.8-16.2
		c-12.7-8-33.8-8.2-48.1-5.1c-22.6,5-39.8,14.8-59.6,26.1l-0.3,0.2c-2.1,1.1-4.2,2.3-6.3,3.5c-13.5,7.7-27.3,9.1-40.7,10.4
		c-1.2,0.1-2.5,0.3-3.8,0.4c-1.2,0.1-2.5,0.2-3.7,0.4l-4.1,0.4c-31.6,3.8-67.4,8.1-98.8-3.7c-15.1-5.7-32.4-17.4-35.6-33.1
		c-2-9.6,1.7-18.9,10.9-27.6c14.5-13.6,32.5-22,48.4-29.4c1.4-0.7,2.8-1.4,4.3-2.1c4.4-2.1,8.9-4.3,13.3-6.5
		c12.4-6.4,25-14.1,33.3-27.1c2.4-3.7,4.6-7.7,6.8-11.5c0.8-1.4,1.5-2.8,2.3-4.1l0.1-0.2c4-7.1,8.1-14.5,13-21.5
		c15.4-21.4,24.7-44.6,34.5-69.2l0.2-0.4c1.2-3,2.4-6,3.6-9c0.6-1.5,1.2-3,1.8-4.5c6.7-16.6,15.5-35.7,29-51
		c24.1-27.4,73.2-63.2,109.7-49.7c23,8.6,46.2,32,59,49.4c6.8,9.3,16.2,23.9,22.5,40.5c2.8,7.4,5.3,14.9,7.4,21.2
		c3.2,9.9,6.1,18.8,9.9,27.4c7.5,17.3,17.4,33.7,29.4,48.8c8,10.1,22.6,18.7,34.2,25.7c0.7,0.5,1.4,0.9,2,1.3
		c0.4,0.2,0.8,0.5,1.2,0.7c4.8,2.8,8.7,5,12.3,7l0.2,0.1c9,4.9,18.3,10,26.4,16.7c27.1,22.5,35.4,53.7,23.4,87.9
		c-11.4,32.7-30.4,45.9-58.1,40.2c-5.1-1-9.5-3-14.6-5.2l-1.5-0.6c-0.8-0.4-1.5-0.7-2.3-1.1s-1.6-0.7-2.3-1.1
		c-1.3-0.5-2.6-1.1-4-1.6c-2.2-0.9-4.4-1.8-6.8-2.7c-17.6-7-39.4-15.6-48.3-29.3c-9.8-15.1-14.2-43.7-4.8-60.7
		c9.2-17,7.9-46.6,2-66.9c-3.5-12.2-9.1-23.4-14.9-34.8l-1.4-2.9c-3.1-6.2-6.2-12.5-8.9-19c-2.8-7.1-4.8-13.7-6.7-20.1l-0.4-1.3
		c-3.1-11-6.2-22.3-14.4-34.1c-13.4-19.4-31.6-42-52.8-43.8c-11.8-1-23.8,4.6-35.7,16.7c-17.6,17.9-32.1,39.7-39.8,59.9
		c-8,21.2-12.1,43.9-11.2,62.1c1.5,30.3,22.8,45,45.4,60.5l0.5,0.4c12.3,8.5,24.9,17.3,34,28.9c2.9,3.6,5.4,7.8,7.9,11.8
		c0.5,0.7,0.9,1.5,1.4,2.2l0.3,0.5c5.2,8.5,10.6,17.3,18.2,22.9c3.2,2.4,6.7,4.8,10,7.1c1.5,1.1,3,2.1,4.5,3.2
		c6.5,4.5,14.2,9.8,21.5,15.5c9,7,18.9,13.1,28.6,19l1.3,0.8c13.8,8.4,28,17.1,39.9,28.7c0.7,0.7,1.4,1.4,2.1,2.1s1.5,1.4,2.2,2.1
		c19.7,19.2,40.1,39,65,39.1c4.6,0,9.3-0.7,14.2-2.1c23-6.6,40.6-23.7,59.2-41.9l0.5-0.4c17.9-17.3,36.4-35.2,61.5-45.8
		c16.4-6.9,34.1-10.8,50.8-14.3l1.2-0.2v2.8l-0.8,0.2c-17.5,3.6-34.6,7.4-50.1,13.9c-24.7,10.4-43.1,28.3-60.8,45.5l-0.1,0.1
		c-18.8,18.3-36.6,35.6-60.3,42.5c-5.2,1.5-10.2,2.2-15,2.2c-25.9,0-46.7-20.2-66.8-39.9c-1.5-1.5-2.9-2.9-4.4-4.3
		c-11.9-11.6-26.1-20.3-39.8-28.7c-10.4-6.2-20.5-12.4-29.7-19.7c-5.9-4.6-12.2-9-18.2-13.3l-3.1-2.2c-5.6-3.8-10.4-7.2-14.6-10.3
		c-8-5.9-13.5-14.9-18.9-23.6l-0.3-0.5c-2.7-4.5-5.6-9.6-9-13.8c-8.8-11.3-21.3-20-33.5-28.4l-0.5-0.4c-22.1-15.3-45-31-46.5-62.7
		c-0.9-18.5,3.3-41.6,11.5-63.3c7.8-20.4,22.5-42.6,40.4-60.8c12.4-12.7,25.2-18.6,37.8-17.5c22.3,1.9,41,25,54.8,44.9
		c8.4,12.1,11.6,23.8,14.7,35c2.1,7.3,4,14,7,21.1c3.1,7.5,6.8,14.9,10.3,21.7l1.1,2.3c5.2,10.5,10.5,21.4,13.8,33
		c6.1,21,7.2,51.5-2.3,69.1c-8.7,16.2-4.5,43.5,4.8,57.9c8.3,12.8,29.6,21.3,46.7,28.1l0.3,0.1c1.6,0.6,3.1,1.3,4.6,1.9
		c2.2,0.9,4.4,1.7,6.3,2.6c0.8,0.4,1.5,0.7,2.3,1.1s1.6,0.7,2.3,1.1c5.4,2.5,10.2,4.6,15.5,5.7c26.2,5.3,44.2-7.3,55.1-38.4
		c11.6-33.1,3.5-63.2-22.6-84.8c-7.7-6.3-16.4-11.2-26.1-16.5c-1.2-0.7-2.5-1.4-3.7-2c-2.9-1.6-5.9-3.3-8.7-5
		c-1.1-0.7-2.2-1.3-3.3-1.9c-11.2-6.7-26.6-15.8-35-26.4c-12.3-15.5-22.3-32.2-29.7-49.4c-3.8-8.6-6.8-17.6-10-27.6
		c-2-6.3-4.5-13.7-7.3-21.1c-4.8-12.7-12.5-26.5-22.3-39.9c-12.5-17.2-35.1-40.2-57.6-48.6c-35.2-13.1-83.1,22-106.6,48.8
		c-12.9,14.6-21.3,32.7-28.5,50.1c-1.2,2.8-2.3,5.7-3.4,8.4c-0.7,1.7-1.4,3.5-2,5.2l-0.3,0.8c-9.8,24.6-19.1,47.8-34.7,69.4
		c-4.9,6.8-9,14.1-12.9,21.2l-0.1,0.2c-2.8,5.1-5.8,10.4-9.1,15.6c-8.6,13.5-21.6,21.5-34.4,28.1c-5.2,2.7-10.6,5.2-15.9,7.7l-2.1,1
		c-16.5,7.8-33.6,15.8-47.3,28.8c-8.4,8-11.8,16.4-10.1,25.1c2.4,12.2,15.7,24.4,33.9,31.1c30.8,11.5,66.3,7.3,97.6,3.6l4-0.5
		c2.7-0.2,5.4-0.5,7.5-0.8c13.9-1.4,26.9-2.7,39.7-10c2.1-1.3,4.2-2.5,6.3-3.6c19.1-10.9,37.2-21.3,60.7-26.6
		c14.7-3.2,36.7-2.9,50.2,5.5c6.7,4.3,9.6,10.5,12.6,17l0.4,0.9c1.7,3.8,3.5,7.7,6,11c11,14.4,26.3,26.1,39.7,36.3
		c12.6,9.6,28.3,21.5,39.9,36.1c6.5,8.3,12.1,18.6,17.5,28.6l0.1,0.2c5,9.3,10.6,19.8,17,27.7c12.4,15.5,29.5,20.9,48.1,15.1
		c16.5-5.2,35-19.3,52.8-32.9c2.7-2.2,5.4-4.3,8-6.2c9.2-6.9,18.2-14.1,27.3-21.6c24.4-19.9,47.5-38.7,73.7-49.3
		c9.1-3.8,19.9-6.8,35.1-9.8l1.2-0.2v2.8l-0.8,0.2c-14.2,2.8-25.1,5.9-34.4,9.5c-25.9,10.5-48.7,29.1-72.9,48.8l-1.7,1.4
		c-8.3,6.7-16.9,13.7-25.7,20.4c-1.4,1.1-2.8,2.2-4.3,3.3c-1.3,1-2.5,2-3.8,2.9l-1,0.8c-17.7,13.5-36.1,27.4-52.6,32.6
		C1500.3,1482.5,1495.2,1483.3,1490.3,1483.3z"/>
</g>
<g>
	<path class="st0" d="M1489.9,1576.6c-16.7,0-32.3-10.3-43.3-20c-15.3-13.4-29.3-32.5-36.5-49.8c-4.8-11.2-7.8-23.1-10.8-34.6
		l-0.1-0.5c-3.1-11.9-6.3-24.1-11.2-35.6c-10.8-25.9-31.1-42.2-52.6-59.5l-0.8-0.6c-3.7-2.9-7.5-5.9-11.1-8.9
		c-28.5-23.6-62.7-27.3-91.7-9.8c-7.1,4.2-14.4,9.1-21.8,14.2l-0.3,0.2c-20.8,14.1-42.4,28.7-65.2,32.7c-39.9,6.9-72.9,8-101,3.3
		c-37.6-6.3-55-13.7-63.4-58.4c-4.8-25.6,3-50.6,20.3-65.1c6.7-5.6,13.1-11.8,19.2-17.8l1.8-1.8c9.6-9.4,20.5-20.1,33.2-29
		c4.1-2.9,8.9-5.9,13.7-9c17-10.7,38.1-24,45.8-41.9c7.4-17.3,11.4-36.3,15.4-54.8l0.3-1.2c3.7-17.2,7.5-34.9,13.9-51.6
		c6.1-15.7,13.5-30.2,22-43c1.9-3,3.8-6.1,6.2-10.3l0.5-0.9c3.9-6.7,8-13.7,12.8-19.2c17.4-19.8,42.4-28.8,66.6-37.6l2.7-1
		c2.3-0.9,4.5-1.7,6.7-2.5c4.3-1.5,8.7-3.8,12.8-5.9l0.8-0.4c6.9-3.5,14-7.1,21.1-8.1c23-3.3,42.6,8.1,58.7,19.6
		c3.3,2.3,5.8,4.1,8.3,5.8c18.2,12.7,35.4,24.7,49.6,44.4c8.9,12.3,16.6,26.4,22.8,41.9c2,4.9,3.8,9.9,5.7,15.1
		c0.8,2.1,1.6,4.3,2.4,6.4l0.1,0.4c13.3,36.5,28.3,77.8,67,89.9c21.3,6.7,44.7-4.8,67.3-15.8l1.6-0.8c13.6-6.6,26.4-12.9,39-15.6
		l0,0c17.1-3.7,49-5.5,83.1-4.6h1v2.8h-1c-33.2-0.8-65.6,1-82.7,4.6c-12.3,2.6-25.2,8.9-38.8,15.6l-0.5,0.2
		c-18.4,9.1-37.3,18.5-55.6,18.5c-4.8,0-9.6-0.6-14.3-2.1c-40.3-12.5-55.5-54.7-69-92c-2.6-7.2-5.2-14.5-8-21.4
		c-6.3-15.6-13.9-29.5-22.5-41.4c-13.8-19.3-30.8-31.2-48.9-43.8l-1.7-1.1c-2.3-1.5-4.4-3-6.7-4.6c-16.7-11.7-35.2-22.1-56.8-19
		c-7.1,1-14.9,5.1-21.1,8.3c-4,2.1-8.6,4.5-12.9,6.1l-2,0.7c-2.4,0.9-5,1.8-7.4,2.7c-23.9,8.7-48.6,17.6-65.5,36.8
		c-4.8,5.5-8.9,12.6-13,19.4l-0.1,0.2c-0.8,1.4-1.6,2.7-2.4,4c-1.3,2.3-2.6,4.4-3.9,6.4c-8.3,12.8-15.6,27.1-21.7,42.5
		c-6.3,15.8-10,33-13.5,49.6l-0.4,2c-4,18.8-8.2,38.2-15.8,56.1c-8.1,18.7-28.7,31.7-46.9,43.2c-1.5,1-3,1.9-4.5,2.9
		c-3.3,2.1-6.4,4.1-9.2,6.1c-12.5,8.7-23.3,19.3-32.9,28.7l-0.1,0.1c-6.8,6.6-13.8,13.3-21.1,19.6c-16.6,13.9-24,37.8-19.4,62.4
		c8.1,42.9,24.8,50.1,61.1,56.1c28.4,4.7,61.1,3.6,100.1-3.3c22.5-4,43.9-18.5,64.5-32.5l2.1-1.4c6.8-4.6,13.2-9,19.6-12.8
		c30-18,65.5-14.2,94.9,10.1c2.6,2.2,5.3,4.4,8,6.5c1,0.8,2,1.6,3,2.4l0.5,0.4c21,16.8,42.8,34.3,53.9,60.8
		c4.9,11.6,8.1,24,11.2,35.9l0.8,2.9c2.9,10.6,5.8,21.6,10.1,31.9c6.8,16.5,20.8,35.7,35.7,48.8c12.7,11.3,32,23.5,51.6,17.8
		c18.2-5.3,29-26.2,40.5-48.4l1.7-3.1c7.1-13.3,14.3-27.1,24-38.6c10.3-12.3,24.5-25.4,43.6-40.2l1.4-1
		c26.2-20.5,50.9-39.8,84.1-46.4c1.1-0.2,2.2-0.4,3.3-0.6c1.1-0.2,2.1-0.3,3.2-0.5l1.2-0.2v2.9l-0.9,0.1c-2,0.3-4.2,0.6-6.2,1.1
		c-32.3,6.4-56.7,25.3-82.5,45.4l-0.6,0.4l-1.2,1c-12.2,9.5-29.9,23.9-43.1,39.8c-10.5,12.6-18.7,28.4-25.3,41.1l-0.2,0.3
		c-11.7,22.6-22.8,43.9-41.9,49.5C1497.1,1576.1,1493.5,1576.6,1489.9,1576.6z"/>
</g>
<g>
	<path class="st0" d="M1536.2,1039.8c-18.4,0-31.5-11.8-42.1-24.1c-14.1-16.4-26.5-32.9-39-49.8c-2.1-2.7-4.1-5.5-6.1-8.1
		c-5-6.6-9.7-12.9-14.6-19.1c-8.8-11.2-19-21.5-30.3-30.7c-20.6-17-52.9-36.9-81.6-42c-7.7-1.5-16,0.8-23.9,2.9h-0.1
		c-6,1.6-11.5,3-17,3.4c-16.3,1.1-33.5,1.1-48.2-6.7c-13.6-7.3-23.6-21.6-32.4-34.2c-0.8-1.1-1.5-2.2-2.3-3.2
		c-2.6-3.7-5.1-7.3-7.8-10.5c-13.8-17.1-27.6-35.5-32.3-57.5c-3.6-16.7-3.1-41.4,6.3-56.3c4.2-6.5,9.7-12.4,15.1-18.1l1.5-1.6
		c4.5-4.7,8.2-8.7,11.4-12.8c6.2-7.8,11.6-16.4,16.9-24.8l1.6-2.5c8.2-13.5,16.4-26.5,27.1-37.4c16.7-16.9,35.8-21.6,61.2-23.7
		c52.7-4.3,84.9,6.2,116,16.4c3.3,1.1,6.6,2.1,10,3.2c1.7,0.5,3.4,1.1,5,1.6c10.5,3.2,18.7,6.2,26.9,9.4
		c28.7,11.7,47.8,29.7,71,56.7c6.9,2.5,13.3,2,19.1-1.4c8.6-5,15.4-16.3,17.3-28.9c1.7-10.7,0.7-21.9-0.7-34.4
		c-1.3-11.6-2.3-22.9-0.8-33.2c3.8-27,16.9-48.3,38.7-63.5c24.5-17,58.9-25.1,99.6-23.5h1v2.8h-1c-40.2-1.5-74.1,6.5-98.1,23.1
		c-21.1,14.6-33.7,35.4-37.6,61.6c-1.4,9.9-0.3,21,0.7,31.7l0.1,0.8c1.2,11,2.6,23.6,0.8,35.2c-2.2,13.5-9.5,25.6-18.7,30.9
		c-6.8,3.9-14.2,4.4-22,1.5l-0.2-0.1l-0.4-0.4c-23.1-26.9-42-44.7-70.3-56.2c-7.9-3.2-16.1-6.1-26.6-9.4l-5-1.6
		c-3.4-1.1-6.8-2.1-10-3.2c-30.7-10.1-62.5-20.6-114.9-16.4c-24.6,2-43.2,6.5-59.4,22.9c-10.6,10.6-18.6,23.5-26.4,36.1l-0.5,0.8
		c-6.2,10.1-11.8,19.1-18.6,27.6c-3.5,4.5-7.8,9-11.6,12.9c-5.2,5.4-11.6,12.2-16.2,19.4c-8.9,14.2-9.3,38.1-6,54.3
		c4.5,21.2,18.2,39.4,31.8,56.3c3.2,4,6.4,8.5,10.2,14c9.1,13,18.5,26.4,31.4,33.3c14.1,7.5,30.8,7.5,46.8,6.4
		c4.8-0.3,9.7-1.5,14.4-2.8l2.3-0.6c8.2-2.2,16.6-4.5,25-2.9c28.9,5.1,61.8,25.3,83,42.5c11.4,9.3,21.7,19.8,30.8,31.3
		c7.2,9.2,14,18.2,20.8,27.3l0.4,0.6c12,16.1,24.4,32.7,38.4,49.1c12.9,15.1,29.7,29.3,55.8,20.2c15.6-5.4,28.6-14.5,40.5-23.4
		c18.1-13.3,34.5-32,50.3-50.1l0.2-0.2c14.6-16.8,28.4-32.7,42.4-42.6c3-2.2,7.9-5.3,16-7.1l1.2-0.3v2.8l-0.8,0.2
		c-7.5,1.8-11.7,4.4-14.8,6.6c-13.4,9.4-26.9,24.8-41.1,41.2l-1.6,1.8c-15.8,17.9-32.1,36.5-50,49.7c-12.3,9-25.6,18.3-41.3,23.7
		C1546.9,1038.9,1541.3,1039.8,1536.2,1039.8z"/>
</g>
<g>
	<path class="st0" d="M1503.1,419.6c-9.2,0-18-1.3-26.6-3.8c-27.6-8.1-48.6-33.1-70.9-59.5c-10.8-12.9-23.1-27.5-36.5-39.8
		c-8.6-7.7-16.1-14.4-24.1-21.5l-6.7-6c-7.9-8.7-14.9-18.7-21.3-28.2l-0.6-0.8c-7.5-10.9-15.2-22.2-24.7-31.8
		c-4.6-4.7-8.9-9.6-12.7-14l-0.8-0.9c-8.4-9.6-17.2-19.5-28.3-26.5c-15.9-9.9-33.5-12.7-50.6-15.5l-0.5-0.1c-10.3-1.6-22-3.4-33.4-7
		c-26.7-8.8-48.7,16.9-64.8,35.7c-12.8,15-24.8,32.6-35.3,48.1c-23.9,35.1-48.6,71.4-88.4,91.4c-43.9,23.3-83,11.7-120.8,0.6
		c-11.2-3.3-22.7-6.7-34.1-9c-50.5-10.1-76.6,7.2-101.9,24l-0.8,0.5c-14.9,9.9-29,19.3-47.7,23.4c-7.8,1.7-14.5,2-22.5,0.9
		c-20.1-2.7-37.6-14.8-56.3-27.5l-0.8-0.5c-13.2-9.1-28.1-19.4-43.9-25.5c-15.3-5.8-41.9-12.3-81.2-10.1
		c-22.7,1.2-41.4,1.7-56.7-3.1c-18.3-5.7-29.3-18.3-33.7-38.6c-8.1-37.5,18-65.4,43.3-92.3l0.2-0.2c17.6-18.8,35.8-38.2,42.1-60.7
		c3.9-13.8,2.2-34.2,0.8-45.1l0,0c-2.3-19.8-7.8-40.1-13.7-61.5l-1.8-6.4c-0.5-1.5-0.9-3-1.3-4.6c-0.3-1.1-0.6-2.2-1-3.3l-0.4-1.3
		h2.9l0.2,0.7c0.6,2,1.2,4.1,1.7,6.1l0.5,1.6c7.5,25.7,13.4,47.1,16,68.2c1.6,13.8,2.8,33-0.9,46.2c-6.5,23.1-24.9,42.8-42.8,61.9
		l-0.2,0.2c-24.7,26.4-50.2,53.7-42.5,89.7c9.4,43.9,50.9,41.6,87.6,39.5c40-2.1,66.8,4.5,82.3,10.4c15.9,6.2,30.4,16.1,44.5,25.8
		c17.7,12.3,36,25,55.9,27.6c7.9,1.1,14.3,0.9,21.4-0.8c18.7-4.1,32.6-13.4,47.4-23.4c25.8-17.1,52.5-34.8,104.2-24.6
		c11.3,2.2,22.3,5.5,34.1,9l0.2,0.1c37.3,11,75.8,22.4,118.8-0.3c38.8-19.5,63.4-55.5,87.1-90.4l1.5-2.2
		c10.8-15.7,21.9-31.8,34.2-46.3c15.6-18.3,39.2-45.9,67.9-36.5c10,3.3,20.5,5,30.6,6.7l2.3,0.4c17.5,2.7,35.6,5.5,52.2,15.9
		c11.8,7.5,21.3,18.3,29.6,27.9c3.7,4.3,8,9.3,12.7,13.9c9.9,10.1,17.8,21.6,25.5,32.8l1.1,1.6c6.2,8.9,12.6,18.1,19.9,26.3
		c10.9,9.6,20.1,17.8,30.7,27.4c12.5,11.2,23.8,24.6,34.7,37.6l2.1,2.4c21.9,26.1,42.6,50.8,69.5,58.7c18.9,5.5,38.6,4.8,63.6-2.4
		c10.5-3,24.8-8.7,43.8-17.3c25.5-11.7,54.3-27.5,76.9-42.4c17.8-11.8,31.3-28.6,39.2-48.6l1.9,0.4v2.3l-0.1,0.2
		c-8.3,19.7-22,36.4-39.7,48.1c-22.7,15-51.5,31-77.1,42.6c-10.2,4.6-29.6,13-44.2,17.3C1527.4,417.5,1514.8,419.6,1503.1,419.6z"/>
</g>
<g>
	<path class="st0" d="M1605.4,1664.2h-2.8l0.2-1.2c2-11.6,3-23.8,4.2-36.8l0.3-3.7c1.4-15.4,2.8-31.4,5.6-46.9l0,0
		c10.4-55.5,38.2-88.7,80.6-96.1c2.6-0.5,5.2-0.8,8.2-1l1.1-0.1v2.8l-0.9,0.1c-2.9,0.2-5.4,0.5-7.8,1c-41.2,7-68.3,39.5-78.4,93.8
		c-2.8,15.1-4.2,30.8-5.5,46l-0.1,1.6c-1.1,13-2.3,26.8-4.4,39.6L1605.4,1664.2z"/>
</g>
<g>
	<path class="st0" d="M1074.4,1664.2h-2.8l0.1-1.1c0.2-2.5,0.4-5,0.5-7.5c0.6-12.4,0.4-25.7,0.3-38.6l-0.1-3.8
		c-0.5-22-1-47,2.9-66.3c4-20.3,17.6-37.5,39.3-49.9c7.2-4,15.3-6.8,23.1-9.6l1.2-0.4c11.2-4,22.8-8.2,30.7-15.9
		c10-9.7,22.2-17.7,37.3-24.5c12.7-5.7,27.7-8.8,43.3-8.8c27.9,0,52.5,9.5,67.6,26c16.9,18.6,25.5,44.2,33.7,69.1
		c3.8,11.4,7.7,23.2,12.5,34.1l1.2,2.8c7.9,17.6,14.8,33.5,19.2,49.2c2.4,8.1,4.4,17.1,6.4,25.7l0.7,3.2c0.7,2.8,1.3,5.5,1.9,8.1
		c0.5,2.2,1,4.4,1.5,6.5l0.3,1.2h-2.8l-0.2-0.8c-1-4-2-8.5-3.3-14.5l-0.6-2.9c-2-8.8-4-17.9-6.3-26.1c-4.4-15.4-11.3-31.3-18.1-46.7
		l-1-2.2l-1.3-2.8c-4.1-9.2-7.4-18.9-10.9-29.2c-0.6-1.7-1.2-3.4-1.7-5.1c-7.6-23.3-16.3-49.6-33.1-68
		c-14.6-15.9-38.5-25.1-65.6-25.1c-15.1,0-29.7,2.9-42.2,8.5c-14.7,6.6-26.7,14.5-36.5,24c-8.7,8.4-20.9,12.7-32.8,16.8
		c-8.5,2.9-16.1,5.6-22.7,9.3c-20.9,11.9-34.1,28.6-38,48c-3.7,18.6-3.3,42.6-2.9,65.8c0.2,13.5,0.4,28.8-0.2,42.5
		c-0.1,2.4-0.3,5.1-0.5,7.5L1074.4,1664.2z"/>
</g>
<g>
	<path class="st0" d="M1131,1664.2h-3.1l-0.2-0.6c-0.1-0.4-0.3-0.8-0.4-1.1c-0.2-0.4-0.3-0.8-0.5-1.2c-5.6-14.4-6.5-32.8-2.8-56
		c3.1-20.8,10-50.6,34.4-68.3c20.1-14.7,47.2-24.4,72.3-25.9c2.7-0.2,5.5-0.4,8.6-0.6c9.6-0.9,17.7-1.3,24.7-1.3
		c7.8,0,13.9,0.6,18.7,1.8c19.9,5.4,27,23.7,33.9,41.4c2.1,5.8,4.5,11.8,7.3,17.1c1.9,3.6,4.3,6.9,6.6,10c3.1,4.1,6.4,8.6,8.5,13.9
		c5.3,13,7.6,28.1,9.4,40.2l0,0c1.3,9,1.9,19.2,1.8,29.6v1h-2.8v-1c0.1-11-0.5-20.8-1.8-29.2c-1.8-12-4-27-9.1-39.7
		c-1.9-4.8-5-9-8-13.1l-0.1-0.2c-2.5-3.3-5-6.6-6.9-10.2c-2.9-5.4-5.2-11.3-7.5-17.4v-0.1c-6.6-17-13.4-34.6-31.9-39.5
		c-4.5-1.3-10.3-1.9-17.9-1.9c-8,0-16.4,0.7-24.4,1.4c-1.2,0.1-2.4,0.2-3.5,0.3c-1.8,0.1-3.5,0.3-5.1,0.3
		c-24.9,1.6-51.4,11.1-70.8,25.3c-23.5,17.1-30.3,46.1-33.4,66.4c-2.3,14.7-4.5,36.3,2.6,54.7c0.2,0.7,0.5,1.3,0.8,1.9L1131,1664.2z
		"/>
</g>
<g>
	<path class="st0" d="M1639,1664.2h-2.8l0.1-1.1c5.5-80.6,26.7-121.5,64.7-124.9h0.1c0.2,0,0.4,0,0.5,0.1c0.1,0,0.1,0,0.2,0l0.9,0.1
		l0.1,0.9v1.8h-1c-0.3,0-0.6,0-0.9-0.1c-36.1,3.5-56.3,43.5-61.8,122.3L1639,1664.2z"/>
</g>
<g>
	<path class="st0" d="M1684.6,1664.2h-2.8l0.1-1.1c0.7-9.2,4.9-17.3,8.9-23.9l0.3-0.4l0.1-0.1c3.8-2.2,7.3-3.4,10.4-3.6l1.1-0.1v2.7
		l-0.9,0.1c-2.8,0.3-5.8,1.4-8.8,3.1c-3.8,6.4-7.7,14-8.4,22.4L1684.6,1664.2z"/>
</g>
<g>
	<path class="st0" d="M447.7,1664.9h-2.9l-0.2-0.7c-5.1-17.3-8.8-31.7-11.7-45.2c-4.2-19.4-3.8-46.7,0.8-62
		c6.3-20.4,16.7-32.8,33.2-50.8c2.6-2.9,5.4-5.9,8.4-9c10.3-10.5,24.5-24.9,27.4-39.1c5.8-27.6-11.5-43.8-29.1-56
		c-8-5.6-17.1-10.1-25.9-14.5l-3.4-1.6c-12.5-6-25.4-12.3-36-21.6c-11.5-9.9-21.5-24.2-29.8-42.5c-3.8-8-5.4-16.5-7-24.8l-0.1-0.6
		c-1.4-7.5-3-16-6.4-23.8c-15.6-35.2-36-75-69.7-102.8c-14.9-12.3-33.8-31.9-38.7-55.3c-3.4-15.9,1.4-29.7,4.8-39.7l0.6-1.9
		c7.8-22.9,30.2-75.9,75.8-93.6c2.6-1,5.3-2,8.1-2.8c9.1-2.6,20.1-4.5,31.7-6.5c10.1-1.7,20.5-3.5,29.5-5.8c3.8-1,7.3-2,10.5-3.2
		c16.9-6.2,29.1-15,42.1-25l1.8-1.4c9.8-7.6,22.7-17.6,38.9-19.9c3.5-0.5,7.1-0.7,10.8-0.4c17.9,1.5,38.1,10.8,55.5,25.4
		c11.3,9.5,20.2,20.3,25.9,31.2c3.4,6.4,5.8,12.8,6.9,19.1c1.8,9.5,2.6,17.3,3.4,24.8l0.3,2.8c0.6,7.5,1.5,14.2,2.6,21.1
		c11.7,66.7,60.2,107.9,144.2,122.4c49.1,8.5,90.5-7.5,106.1-14.8c24.8-11.5,51.4-39.5,74.4-64.8c22.7-25,34.7-39.9,37.4-79.4
		c0.9-12.3-0.1-24.4-1.1-36.1l-0.1-1.2c-0.2-2.5-0.4-5.1-0.6-7.7c-0.2-2.2-0.3-4.5-0.5-6.7c-0.2-3-0.4-5.9-0.6-8.9l-0.2-2
		c-1-11.7-2.2-25,0.1-38.3c4.7-27.9,20.8-40.2,49.3-37.5c36.3,3.4,68,27.5,80.7,61.2c10.3,27.2,2.2,55-4.4,77.4l-1.1,3.7
		c-10.7,37.2-25.1,66.2-44.2,88.6c-11,12.8-23,24.8-34.4,36c-1,1-2.1,2.1-3.2,3.2c-3.2,3.2-6.6,6.5-9.7,9.8
		c-5.7,5.7-12.1,11.1-18.2,16.3l-2.4,2c-7.6,6.4-15.6,13-22.1,20.5c-10.2,11.7-17.8,24.9-23.4,35c-19.6,36.1-33.4,68-42,97.5
		c-7.8,27.1-29.6,48.6-58.3,57.6c-36.5,11.4-88.6,10.1-154.7-4c-33.1-7-52.8-26-58.6-56.5c-6.2-33.5-28.9-50.1-52.9-67.8
		c-5.7-4.3-12.4-9.2-18.9-14.5c-26.9-21.9-13.8-42.5,0.1-64.3l0.7-1.1c5.8-9.1,11.8-18.5,14.4-27.9c4.1-15.1-1.6-31.9-6.6-46.8
		l-0.7-2.2c-2.5-7.6-4.8-14.8-6-22c-6.2-36.3-12.3-65.1-30.3-76.4c-9.5-6.1-21.9-6.9-38-2.5c-1.9,0.5-3.9,1.1-6,1.7
		c-0.9,0.3-1.8,0.5-2.7,0.8c-6.4,1.9-13.7,4-19.7,5.3c-10.4,2.3-20.9,3.7-32.7,5.1l-1.7,0.2c-11.5,1.4-23.4,2.9-36.4,5.7
		c-41.6,8.6-70.9,39.2-76.5,80c-1.2,8.2-1.5,15.3,0.7,23c6.8,22.6,26.7,38.1,45.9,53.1l0.2,0.1c4,3.1,8.2,6.4,12.2,9.7l1,0.8
		c18.2,15.1,40.8,34,39.9,60c-0.9,25.9,2.4,44.7,11,62.8c13.4,28.4,32.4,45.7,65.6,59.6c1.2,0.5,2.5,1,3.8,1.5
		c1.2,0.5,2.5,1,3.7,1.5c11.6,4.8,23.6,9.6,34.7,16c9,5,15,11.3,21.3,17.9l0.5,0.5c2.8,3.1,6.6,7.1,11.2,11.1
		c4.7,4.1,9.1,9.4,13.7,15l1.3,1.6c12.4,15.3,26.4,32.5,47.6,28.5c11.3-2.2,22.7-10.2,33.8-18l0.2-0.1c10.4-7.2,21.2-14.7,33.4-19.5
		c20.5-8,49-9.9,79.3-12l1.1-0.1c20.2-1.3,38.3-2.6,55.1-5.3c39.4-6.2,65.9-20,81.2-42c4.6-6.7,7.6-14.4,10.3-21.1
		c2.1-5.6,4.5-11.4,7.8-16.9c2.3-4.2,5.7-7.3,9.5-10.7l1-0.9c1.5-1.4,3.1-2.9,4.4-4.4c2.9-3.3,6-7,9.2-10.9c3.2-4,6.7-7.9,10-11.8
		l0.4-0.4c5.4-6,11.4-11.4,17.2-16.7l1.1-1c5.5-4.9,11.6-10.4,17.1-16.2c4.4-4.8,8.2-10.1,11.3-14.7l1.2-1.7
		c3.6-5.1,7.4-10.4,12.3-15.1c8.4-8.3,18.2-18.2,26.1-29.6c6.2-8.9,9.1-17.8,12.1-27.2l0.2-0.6c0.3-1,0.7-2,1-3
		c0.7-2.1,1.4-4.2,2.1-6.3c2.4-6.7,6.5-13,10.4-19.2l1.4-2.1c2.3-3.5,4.7-7.2,6.7-10.8c8-14.5,14.9-29.2,20.4-43.7
		c1.5-4.1,3-8.2,4.4-12.2c0.4-0.9,0.7-1.7,0.9-2.5c0.3-0.9,0.6-1.7,1-2.6c1.6-4.3,3.2-8.8,4.9-13.1c1.3-3.3,2.5-6.7,3.7-10
		c7.9-20.6,16.8-44,21.3-64.8c2.8-13.7,5.1-27,2.2-40.3c-10.1-46.9-55.6-95.9-97.2-104.8c-19.3-4.2-43.7-3.9-68.7,0.8
		c-20.9,3.8-34.6,10.7-43.2,21.8c-8.2,11-11.6,26.4-10.5,48.3c0.4,9,1.3,18.2,2.1,27.1l0.4,5c1.9,21.3,3.6,41.4,1.4,60.9
		c-1.1,9-3.8,18.6-8,28.7c-6.2,15.1-20.3,40.4-37.9,67.9c-17.2,27.2-40.7,47.1-64.4,54.7c-44.8,14.1-104.6,0-139.2-32.7
		c-24.8-23.4-34.1-53.8-26-85.6c0.5-2,1.3-4,2.2-6c0.2-0.5,0.4-1,0.7-1.6c1.2-2.5,2.6-5.8,3.5-9.5l0.1-0.2l0.1-0.2
		c5.3-9.3,11.9-17.5,18.3-25.4l0.3-0.4c14.4-17.7,27.9-34.4,22.8-58.1c-0.9-4.1-2.8-8.7-4.8-13.6l-0.2-0.4
		c-4.3-10.4-9.2-22.2-3.4-29.5c9.3-11.6,22.3-23.9,34.8-35.7c22.6-21.4,45.9-43.5,52.5-64.2c6.4-20.2-7-40.6-12.7-49.3
		c-5.6-8.3-11.7-16.8-18.3-25.8l-3.2-4.4c-6.8-9.3-12.5-17.1-17.9-25c-2.4-3.4-4.7-6.8-7.1-10.1c-2.4-3.4-4.8-6.9-7.2-10.3
		c-2.7-4-5.4-7.9-8.1-11.7c-7.9-11.5-15.4-22.3-23.2-33.9c-3.9-5.8-7.8-12-11.5-17.9l-3-4.8c-6-9.5-12.2-19.3-18.4-27.5
		c-14.8-19.9-31.6-28.1-49.8-24.4c-18.5,3.8-38.6,18.1-56,31.2l-7.6,5.7c-32.5,24.4-69.4,52-79,82.5c-8,25.3,6.9,37.2,22.8,49.9
		c0.8,0.6,1.5,1.3,2.3,1.9c0.9,0.8,1.9,1.5,2.9,2.3c10.6,8.7,18.8,17.8,26,26.2c8.9,10.5,16.6,22.5,25.1,36
		c4.9,7.8,10.5,16.8,15.9,23.8c17.7,23.2,40.6,33.4,62.7,43.2c22.1,9.9,45,20,62.4,43l0.3,0.3v3c0.2,2.2,0.3,4.9-0.4,7.6l-0.2,0.5
		l-0.1,0.1c-21,22.6-47,28.3-79.4,17.5c-9.6-3.3-19.1-8.4-29.2-13.9l-0.6-0.3c-22.3-12-45.3-24.4-71.5-16.4
		c-19.1,5.8-31.7,18.7-45.1,32.3l-0.6,0.6c-12.9,13-26.2,26.4-45.5,33.1c-12,4.1-24.1,5.2-39.8,6.4c-40.6,3.1-60.2,7.8-76.7,28.7
		c-22,27.9-49.4,77.9-57.9,98.7c-3.3,7.9-5.3,14-6.2,18.6c-7.1,35.2,14.7,63,34.5,83.3c4.7,4.7,9.7,9,15.2,13.8
		c4.2,3.6,9.2,7.9,13.8,12.4c9.2,9,16.4,19.7,23.4,30.1c3.4,5.1,7.1,10.5,10.9,15.6c27.9,37.4,36.3,70,27.3,105.8
		c-9.4,36.9-28.9,60.2-56.4,67.3c-12.1,3.1-24.9,4.7-40.3,6.4c-14.3,1.6-27.1,3.2-39.9,6.1c-11.7,2.6-22.9,6-33.3,9.4l-0.2,0.1
		c-14.9,4.7-28.9,9.1-43.6,11c-25.8,3.4-48.5-1.9-70.5-7l-0.7-0.2c-19.1-4.4-37.2-8.6-54.9-6.2l-1.1,0.2v-2.8l0.9-0.1
		c18.4-2.4,36.7,1.9,56.2,6.4l1.6,0.4c21.4,4.9,43.5,9.9,68.3,6.6c13.8-1.7,27.1-5.8,41.2-10.2l2.2-0.7c10.4-3.3,21.6-6.8,33.5-9.5
		c12.3-2.9,24.9-4.4,37-5.8l3.3-0.4c15.4-1.7,28-3.3,40-6.4c33.3-8.6,47.9-40.3,54.4-65.4c8.8-35,0.5-66.9-26.9-103.5
		c-2.8-3.7-5.5-7.6-8-11.3c-1-1.5-2-3-3-4.4c-7.4-11.2-14.3-21.1-23-29.9c-3.4-3.4-7.2-6.6-10.8-9.7c-1-0.8-2-1.7-2.9-2.5l-1-0.9
		c-4.8-4.2-9.8-8.5-14.3-13.1c-20.2-20.8-42.5-49.4-35.3-85.8c0.9-4.4,2.9-10.5,6.4-19.2c8.3-20.6,35.8-70.8,58.3-99.4
		c17.2-21.8,37.3-26.6,78.7-29.7c15.6-1.2,27.6-2.4,39-6.3c18.9-6.6,32-19.9,44.7-32.8l0.3-0.3c13.1-13.3,26.7-27.1,46.3-33
		c27.5-8.4,52.1,5,73.8,16.8l1.1,0.6c9.7,5.2,18.9,10.2,28.2,13.2c31.3,10.4,56.2,5,76.2-16.6c0.6-2,0.5-4.1,0.4-6.3
		c0-0.5,0-0.8-0.1-1.2c0-0.3,0-0.6,0-0.9c-16.8-21.9-39.1-31.9-60.7-41.5l-1.4-0.6c-22.2-10-45.1-20.4-62.9-43.7
		c-4.7-6.2-9.4-13.6-14.3-21.4l-1.6-2.6c-7.3-11.7-15.7-24.9-24.9-35.8c-7.1-8.3-15.2-17.2-25.7-25.8c-1.7-1.5-3.3-2.9-5.2-4.3
		c-16.6-13.2-32.2-25.7-23.7-52.9c10-31.3,47.3-59.3,80.2-84.1l0.3-0.2c1.7-1.4,3.5-2.7,5.2-4c0.6-0.5,1.3-0.9,1.9-1.4
		c17.7-13.4,38.1-27.9,57.1-31.8c19.3-4,37,4.6,52.6,25.5c6.4,8.4,12.7,18.3,18.7,27.8l4.5,7.1c3.2,5.1,6.6,10.4,9.9,15.4
		c7.5,11.1,14.7,21.5,22.3,32.6c3,4.3,5.9,8.6,9,12.9c2.2,3.3,4.5,6.5,6.8,9.8c2.4,3.4,4.9,7,7.4,10.6c6.3,9.1,12.9,18.1,18,25
		l3.2,4.4c6.5,9,12.7,17.5,18.3,25.8c6,9,20.1,30,13.1,51.7c-6.8,21.3-30.4,43.7-53.2,65.4l-0.5,0.4c-12.9,12.3-25.1,23.9-34,35.1
		c-4.8,6-0.5,16.5,3.6,26.7l0.6,1.6c1.9,4.6,3.7,8.9,4.5,13c5.4,24.8-8.5,42.1-23.3,60.4c-6.1,7.5-13,16-18.3,25.2
		c-0.7,3.5-2,6.6-3.5,10c-1.1,2.3-2.1,4.8-2.7,7.2c-10.1,39.4,8.1,66.8,25.1,82.8c34.1,32.2,92.7,46,136.4,32.1
		c23.1-7.4,46.1-26.9,63.1-53.6c17.4-27.3,31.5-52.4,37.6-67.3c2.7-6.6,6.5-16.7,7.7-27.9c2.3-19.7,0.4-40-1.6-61.6v-0.2
		c-0.2-2.7-0.4-5.4-0.7-8.2c-0.6-7.4-1.3-15-1.6-22.6c-2.1-44.7,13.6-65.2,56-73.1c25.1-4.7,49.9-5,69.8-0.8
		c42.6,9.2,89.1,59.2,99.5,107.1c3,14,0.5,28.2-2.3,41.5c-4.4,20.5-12.9,42.9-21.1,64.6l-0.2,0.6c-2.7,6.9-5.5,14.4-8.6,23l-1.8,5.1
		c-0.9,2.3-1.7,4.6-2.5,7c-0.6,1.7-1.2,3.5-1.9,5.2c-5.7,14.6-12.6,29.5-20.7,44.1c-2,3.7-4.4,7.4-6.8,11l-0.5,0.7
		c-4,6.1-8.6,13-11,20c-1.1,2.8-2,5.8-3.1,9.3l-0.4,1.1c-3.1,9.4-6,18.3-12.4,27.5c-7.7,11.1-17.2,20.9-26.3,29.9
		c-5.1,4.9-8.9,10.3-12.6,15.6l-1.5,2.1c-3.3,4.6-6.6,9.3-10.8,13.7c-5,5.3-10.5,10.3-15.8,15.1l-2.6,2.3
		c-5.8,5.2-11.7,10.6-17,16.3c-3.2,3.5-6.2,7.2-9.2,10.7l-2.7,3.2c-2.5,3.1-5.2,6.2-7.9,9.2c-1.8,2-3.9,3.9-5.7,5.5l-0.8,0.7
		c-3.1,2.8-6.3,5.7-8.2,9.3c-3.1,5.3-5.4,11.1-7.5,16.6c-2.9,7.3-5.9,14.9-10.7,21.6c-15.8,22.7-42.9,36.9-83.1,43.2
		c-18.2,2.9-38.8,4.2-55.4,5.3l-1.1,0.1c-30,2.1-58.4,4-78.5,11.9c-12.3,4.9-23.3,12.6-33,19.4c-12,8.3-23.3,16.2-34.9,18.5
		c-22.9,4.3-37.4-13.7-50.3-29.6c-4.4-5.4-9.5-11.6-14.7-16.2c-4.3-3.8-8-7.6-11.5-11.3c-6.8-7.2-12.7-13.2-21.3-18
		c-11.2-6.2-23-11.1-34.4-15.8c-1.2-0.5-2.5-1-3.8-1.6c-1.2-0.5-2.5-1-3.7-1.5c-33.8-14.1-53.3-31.8-67.1-61
		c-8.7-18.7-12.1-37.9-11.2-64.1c0.8-24.9-21.4-43.2-39.2-57.9l-0.7-0.6c-3.4-2.9-7-5.6-10.8-8.5l-2.2-1.7
		c-18.5-14.5-39.4-30.9-46.2-54.1c-2.4-8.2-2-15.6-0.8-24.2c2.8-20.3,11.6-38.7,25.3-53c13.9-14.8,32.4-24.9,53.5-29.3
		c13.5-2.8,25.3-4.4,38.4-6l1-0.1c11-1.4,21.3-2.6,31.3-5c5.9-1.3,12.9-3.3,19.5-5.3c2.6-0.9,5.4-1.7,8.7-2.5
		c16.7-4.8,29.9-3.9,40.2,2.7c18.9,12,25.3,41.3,31.6,78.4c1.3,7.8,4,15.9,6.7,23.6l0.1,0.3c5.3,16,10.8,32.5,6.4,48.2
		c-2.8,10.2-9,20-15.1,29.5l-0.2,0.3c-13.2,20.7-25.6,40.3-0.6,60.7c5.3,4.3,11.3,8.9,18.9,14.4l0.1,0.1c24.4,18,47.5,35,53.9,69.3
		c5.5,29.4,24.5,47.7,56.4,54.4c65.8,13.8,117.4,15.2,153.4,3.9c27.7-8.6,48.8-29.4,56.4-55.7c8.6-29.6,22.4-61.6,42.2-98
		c6.5-11.9,13.9-24.4,23.8-35.6c7-8,15.2-15,23.7-22c6.1-5.1,13-10.8,19.1-17c4.2-4.3,8.6-8.7,12.9-12.9
		c12.5-12.4,23.6-23.6,34.1-35.8c18.9-22.3,33.2-50.9,43.7-87.5l1.2-4c6.3-22,14.2-49.4,4.3-75.4c-12.4-32.9-43.1-56.2-78.4-59.5
		c-26.6-2.5-41.7,9-46.3,35.2c-2.2,13-1.1,25.5,0,37.5l0.1,1.6c0.3,3.2,0.5,6.3,0.7,9.3c0.3,4.9,0.7,10,1.1,14.4l0.1,1.2
		c1,11.8,2,23.9,1.1,36.5c-2.7,40.4-14.9,55.6-38.2,81.1c-23.2,25.5-50,53.6-75.2,65.4c-15.7,7.4-57.7,23.7-107.7,15
		c-38.1-6.6-69.3-18.7-92.9-36.1c-28.9-21.3-46.8-51.2-53.4-88.6c-1-5.9-1.6-11.5-2.2-17c-0.2-1.5-0.3-2.9-0.5-4.4
		c-0.8-8.5-1.7-16.9-3.6-27.3c-1.1-5.9-3.2-11.9-6.4-17.9c-5.7-10.6-14.4-21.1-25.4-30.4c-17.5-14.6-37.4-23.7-54.7-25.1
		c-3.5-0.3-6.9-0.1-10.2,0.3c-15.2,2.4-27.6,11.9-37.1,19.3l-1.9,1.4c-13.1,10-25.4,18.8-42.7,25.2c-3.5,1.3-7.3,2.4-11.5,3.5
		c-8.6,2.2-18.4,3.9-27.9,5.6l-2.1,0.4c-10.9,1.9-22.3,3.9-31.5,6.5c-2.5,0.7-4.9,1.5-7.3,2.5c-44.3,17.5-66.1,69.3-73.6,91.7
		l-0.6,1.9c-3.5,10.4-8,23.4-4.8,38.3c4.8,22.5,23.2,41.7,37.8,53.7c33.8,28.1,54.6,68.2,70.5,103.8c3.5,8.1,5.1,16.8,6.6,24.5
		l0.5,2.3c1.5,7.5,3,15.3,6.4,22.4c8,17.8,17.8,31.8,29.1,41.7c10.9,9.5,24.3,15.9,36.1,21.7c9.1,4.4,19.5,9.4,28.8,15.9
		c18.3,12.7,36.3,29.6,30.2,58.8c-2.9,14.5-16.3,28.3-28,40.4l-0.2,0.2c-0.9,0.9-1.7,1.7-2.5,2.6c-2.1,2.1-4.1,4.1-5.8,6.2
		c-17,18.7-26.8,30.2-32.8,49.8l0,0c-4.6,14.9-4.9,41.2-0.8,61.3c2.9,13.4,6.5,27.4,11.7,45.2L447.7,1664.9z"/>
</g>
</svg>
